<svg width="48" height="48" viewBox="0 0 48 48" fill="none" xmlns="http://www.w3.org/2000/svg">
<path d="M16.0244 0H31.8629C31.9925 0.135227 32.1784 0.123958 32.3362 0.174668C33.8744 0.659232 34.7985 1.71851 35.1252 3.27362C35.2999 4.11316 35.2323 4.9865 35.2098 5.84294C35.1985 6.26552 35.2943 6.39512 35.7394 6.38948C38.5059 6.36694 41.2668 6.36694 44.0333 6.38948C46.2082 6.40639 47.9775 8.20378 47.9831 10.373C47.9887 14.9032 47.9831 19.4333 47.9831 23.9634C47.9831 24.7353 47.5323 25.3889 46.7773 25.5298C46.3716 25.6086 46.3829 25.7946 46.3829 26.0876C46.3829 32.5221 46.3885 38.9567 46.3885 45.3912C46.3885 46.9858 45.3969 47.9831 43.7911 47.9831C30.6064 47.9831 17.4274 47.9718 4.24275 48C2.71581 48 1.56075 46.8731 1.57202 45.3011C1.61146 40.2244 1.58892 35.1478 1.58892 30.0711C1.58892 28.6963 1.58892 27.3215 1.58892 25.9467C1.58892 25.8227 1.67344 25.6086 1.47623 25.5974C0.721213 25.541 0.354971 25.0114 0 24.4592C0 19.5234 0 14.5876 0 9.65184C0.0338068 9.58422 0.0788815 9.51661 0.0957849 9.449C0.580349 7.60089 2.24252 6.31623 4.40052 6.36694C7.03744 6.42329 9.67437 6.37258 12.3113 6.38948C12.6832 6.38948 12.7959 6.28806 12.779 5.92182C12.7508 5.3133 12.7733 4.70478 12.779 4.09626C12.8071 2.54678 13.4551 1.33537 14.8017 0.540909C15.1849 0.31553 15.6187 0.180303 16.03 0.00563446L16.0244 0ZM23.9972 23.9972C26.2172 23.9972 28.4315 23.9859 30.6515 24.0141C31.1248 24.0197 31.2149 23.8732 31.2093 23.4394C31.1868 21.8617 31.198 20.2841 31.2037 18.7064C31.2037 17.9852 30.8524 17.6171 30.15 17.6021C30.0711 17.6021 29.9923 17.6021 29.9134 17.6021C29.5246 17.5908 29.3048 17.2415 28.9611 17.1119C28.7977 17.0499 28.7583 16.7062 28.8766 16.4695C29.0231 16.1765 29.2598 16.0188 29.5866 16.0188C30.6458 16.0188 31.7108 16.0075 32.77 16.0075C35.3957 16.0075 38.0157 16.0075 40.6414 16.0075C41.2386 16.0075 41.5993 16.3287 41.5993 16.802C41.5993 17.264 41.2048 17.6021 40.6414 17.6133C40.2808 17.619 39.9202 17.6359 39.5652 17.6133C39.2497 17.5908 39.1764 17.7204 39.1764 18.019C39.1877 19.8784 39.1933 21.7378 39.1764 23.5971C39.1764 23.9239 39.2666 24.0197 39.5934 24.0141C41.7007 24.0028 43.8136 23.9972 45.9209 24.0141C46.3209 24.0141 46.4054 23.8901 46.3998 23.5126C46.3885 19.2192 46.3942 14.9201 46.3885 10.6266C46.3885 9.00387 45.3912 8.01221 43.7516 8.01221C41.3006 8.01221 38.8496 8.01221 36.393 8.01221C35.1703 8.01221 35.1816 8.01221 35.2041 9.24052C35.2098 9.51661 35.3055 9.60113 35.5591 9.57859C35.6831 9.56732 35.807 9.57295 35.931 9.57859C36.4212 9.61803 36.7987 9.973 36.8043 10.3956C36.8043 10.8182 36.4381 11.2069 35.9366 11.2069C33.8293 11.2239 31.722 11.2239 29.6091 11.2069C29.1133 11.2069 28.7639 10.8125 28.7752 10.3674C28.7865 9.9561 29.1358 9.61803 29.6091 9.57295C30.1125 9.52037 30.3641 9.23489 30.3641 8.71652C30.3641 8.68271 30.3641 8.65454 30.3641 8.62073C30.3641 7.98967 30.3641 7.9953 29.7387 7.9953C25.896 7.9953 22.0533 7.9953 18.2106 7.9953C17.4556 7.9953 17.6133 7.96713 17.6077 8.632C17.6077 8.91372 17.5232 9.24616 17.6471 9.46027C17.7936 9.71382 18.1599 9.53351 18.4303 9.57859C18.8698 9.65184 19.2079 9.99554 19.2023 10.3843C19.2023 10.7956 18.898 11.1224 18.436 11.1957C18.3007 11.2182 18.1542 11.2126 18.0134 11.2126C16.7963 11.2126 15.5793 11.2126 14.3566 11.2126C13.5903 11.2126 12.824 11.2239 12.0634 11.2069C11.5619 11.1957 11.19 10.8463 11.1731 10.4181C11.1562 10.035 11.4943 9.66311 11.9113 9.57295C12.1873 9.51097 12.5818 9.74199 12.7283 9.44336C12.8522 9.18981 12.7621 8.82921 12.7621 8.51931C12.7621 8.50241 12.7621 8.4855 12.7621 8.47423C12.824 8.10799 12.6775 7.98404 12.3057 7.98967C11.0435 8.01221 9.77579 8.00094 8.50804 8.00094C7.05435 8.00094 5.60066 7.98967 4.1526 8.00094C2.60312 8.01784 1.58892 8.99261 1.58328 10.4857C1.57201 14.8412 1.58328 19.2023 1.57202 23.5577C1.57202 23.9296 1.70161 23.9859 2.02841 23.9859C4.1357 23.9746 6.24299 23.969 8.35591 23.9859C8.71652 23.9859 8.80103 23.8789 8.80103 23.5352C8.78977 21.9575 8.80103 20.3799 8.80103 18.8022C8.80103 17.9946 8.3916 17.5889 7.57272 17.5852C6.8008 17.5852 6.37821 17.2978 6.37258 16.7794C6.36694 16.2498 6.77263 15.9681 7.55582 15.9681C11.0548 15.9681 14.5538 15.9681 18.0528 15.9681C18.2219 15.9681 18.3965 15.9681 18.5656 16.0019C18.8247 16.0526 18.9881 16.1878 18.9431 16.4864C18.9262 16.6104 18.9262 16.74 18.9543 16.8583C19.067 17.326 18.8191 17.495 18.4191 17.5288C18.0303 17.557 17.6359 17.5795 17.2471 17.5626C16.8978 17.5514 16.7569 17.6359 16.7625 18.0247C16.7851 19.8502 16.7851 21.6814 16.7625 23.507C16.7625 23.8901 16.8752 23.969 17.2358 23.969C19.484 23.9521 21.7321 23.9634 23.9859 23.9634L23.9972 23.9972ZM23.9972 46.3942C28.6343 46.3942 33.2771 46.3942 37.9143 46.3998C38.2693 46.3998 38.4158 46.3322 38.3876 45.9378C38.3482 45.3293 38.3594 44.7207 38.3763 44.1122C38.3932 43.4868 38.6919 43.2051 39.306 43.1938C39.8976 43.1825 40.4949 43.1713 41.0865 43.1938C41.464 43.2107 41.6162 43.1093 41.5936 42.7036C41.5598 42.0951 41.5767 41.4866 41.5936 40.878C41.6105 40.2695 41.8753 40.0047 42.4895 39.9878C43.1149 39.9765 43.7403 39.9709 44.3658 39.9878C44.6869 39.9991 44.7996 39.892 44.7996 39.5596C44.794 35.0464 44.794 30.5332 44.7996 26.0143C44.7996 25.7044 44.7207 25.5692 44.3827 25.5748C42.7712 25.5917 41.1654 25.5861 39.5539 25.5748C39.2666 25.5748 39.1708 25.6594 39.1764 25.9523C39.1933 26.6228 39.1821 27.2933 39.1764 27.9695C39.1764 28.4991 39.4469 28.7677 39.9878 28.7752C41.2612 28.7921 42.3092 29.75 42.3543 31.0121C42.3993 32.1672 42.3881 33.3222 42.3655 34.4773C42.343 35.514 41.6894 36.3536 40.6977 36.6747C40.3202 36.793 39.9314 36.8325 39.5427 36.8043C39.2497 36.7818 39.1595 36.8945 39.1708 37.1762C39.1877 37.6439 39.1595 38.1115 39.1764 38.5792C39.1933 38.951 39.0975 39.2666 38.8947 39.5877C37.9199 41.1147 36.9734 42.6529 36.0042 44.1798C35.4802 45.0081 34.8773 45.0025 34.359 44.1798C33.5927 42.9628 32.8827 41.7119 32.0601 40.54C31.3952 39.5877 31.0572 38.613 31.1755 37.4466C31.2431 36.7818 31.3107 36.81 30.5332 36.8043C29.1302 36.793 28.0484 35.8408 28.0033 34.5111C27.9638 33.3279 27.9807 32.139 28.0146 30.9501C28.0427 30.1218 28.4991 29.5246 29.1978 29.102C29.6824 28.809 30.2176 28.7245 30.7698 28.7752C31.0572 28.7977 31.1924 28.7301 31.1868 28.3977C31.1642 27.5863 31.1699 26.775 31.1868 25.9636C31.1924 25.6368 31.0572 25.5692 30.7698 25.5748C30.2402 25.5917 29.7105 25.5805 29.1753 25.5805C25.2086 25.5805 21.2419 25.5805 17.2753 25.5692C16.8921 25.5692 16.7513 25.665 16.7738 26.0594C16.802 26.6848 16.7851 27.3102 16.7851 27.9357C16.7851 28.4841 17.0649 28.7621 17.6246 28.7696C18.836 28.7921 19.8953 29.7387 19.9516 30.9501C20.008 32.1334 19.9854 33.3222 19.9685 34.5055C19.9573 35.3168 19.5516 35.9253 18.898 36.3761C18.3909 36.7254 17.8105 36.8325 17.202 36.7874C16.8809 36.7649 16.7513 36.8719 16.7682 37.2044C16.7907 37.6269 16.7456 38.0495 16.7738 38.4665C16.802 38.9229 16.6724 39.306 16.4301 39.6948C15.4835 41.1654 14.5651 42.6473 13.641 44.1291C13.0832 45.025 12.486 45.0137 11.9169 44.1009C11.2464 43.0304 10.621 41.926 9.89412 40.8949C9.10529 39.7906 8.57002 38.6524 8.7954 37.2607C8.85174 36.8945 8.69961 36.7367 8.32774 36.7931C8.23759 36.8043 8.1418 36.7987 8.04601 36.7931C6.64303 36.7536 5.62883 35.7676 5.60066 34.3702C5.57812 33.249 5.58375 32.1221 5.61193 30.9952C5.63446 30.1726 6.05141 29.5528 6.74445 29.1189C7.22338 28.8146 7.75302 28.7076 8.31083 28.7639C8.71088 28.809 8.81794 28.6512 8.80103 28.2681C8.77286 27.5356 8.7785 26.7975 8.80103 26.065C8.8123 25.6819 8.68834 25.5579 8.29957 25.5579C6.73882 25.5748 5.17807 25.5748 3.61169 25.5579C3.29616 25.5579 3.17784 25.6312 3.17784 25.9692C3.18911 30.4994 3.18911 35.0295 3.17784 39.5596C3.17784 39.8695 3.27362 39.9765 3.57788 39.9709C4.1695 39.954 4.76676 39.9596 5.35838 39.9709C6.14157 39.9765 6.38948 40.2301 6.39512 41.0189C6.39512 41.5992 6.40638 42.174 6.38948 42.7543C6.37821 43.0698 6.474 43.1994 6.81207 43.1825C7.40368 43.1544 8.00094 43.1713 8.59256 43.1769C9.32504 43.1825 9.60113 43.4586 9.61239 44.208C9.61803 44.7884 9.65747 45.3687 9.60113 45.9378C9.56169 46.3604 9.74199 46.3829 10.0744 46.3829C14.7116 46.3773 19.3544 46.3829 23.9915 46.3829L23.9972 46.3942ZM10.4069 26.3355C10.4069 29.1302 10.4125 31.9249 10.4012 34.7196C10.4012 35.052 10.4519 35.1816 10.8238 35.176C12.1366 35.1534 13.4438 35.1534 14.7567 35.176C15.1116 35.1816 15.1961 35.0745 15.1961 34.7308C15.1849 29.1753 15.1849 23.614 15.1961 18.0585C15.1961 17.664 15.0609 17.6021 14.7116 17.6021C13.4157 17.619 12.1197 17.6246 10.8238 17.6021C10.4632 17.5964 10.3843 17.7035 10.39 18.0472C10.4012 20.8081 10.3956 23.5746 10.4012 26.3355H10.4069ZM24.0197 1.59455C21.6645 1.59455 19.3037 1.59455 16.9485 1.59455C15.2469 1.59455 14.3679 2.92992 14.4186 4.11879C14.4806 5.56685 14.4355 7.02054 14.4355 8.47423C14.4355 9.57859 14.4355 9.56732 15.5568 9.58422C15.9117 9.58986 16.0019 9.48844 15.9962 9.1391C15.985 7.86008 15.9681 6.57542 16.0357 5.30203C16.0977 4.13006 17.1513 3.19474 18.3289 3.19474C22.0927 3.18911 25.8566 3.18911 29.6147 3.19474C30.8543 3.19474 31.8798 4.11879 31.9587 5.35274C32.0263 6.37821 31.9981 7.40932 32.0094 8.44043C32.015 9.60676 32.0094 9.59549 33.1926 9.58422C33.5138 9.58422 33.5758 9.47153 33.5758 9.17291C33.5645 7.53328 33.5251 5.89365 33.587 4.25402C33.649 2.73835 32.5785 1.55511 30.9107 1.58328C28.6174 1.61709 26.3186 1.58892 24.0254 1.58892L24.0197 1.59455ZM37.5819 30.381C37.5819 28.9161 37.5762 27.4511 37.5875 25.9805C37.5875 25.6819 37.5143 25.5748 37.2044 25.5805C35.8634 25.5974 34.5224 25.5974 33.1814 25.5805C32.8658 25.5805 32.7926 25.6819 32.7926 25.9805C32.8038 28.9104 32.8038 31.846 32.7926 34.7759C32.7926 35.0802 32.8715 35.1703 33.187 35.1647C34.528 35.1478 35.869 35.1422 37.21 35.1647C37.5481 35.1703 37.5875 35.0576 37.5875 34.7703C37.5762 33.3053 37.5875 31.8404 37.5819 30.3698V30.381ZM37.5819 20.8024C37.5819 19.8502 37.5706 18.898 37.5819 17.9514C37.5819 17.6866 37.5086 17.6021 37.2438 17.6021C35.8746 17.6133 34.4998 17.6133 33.1306 17.6021C32.8715 17.6021 32.7869 17.6809 32.7869 17.9514C32.7982 19.8559 32.7982 21.7547 32.7869 23.6591C32.7869 23.9183 32.8546 24.0084 33.125 24.0028C34.4942 23.9915 35.869 23.9915 37.2382 24.0028C37.5086 24.0028 37.5819 23.9183 37.5762 23.6591C37.5593 22.7069 37.5706 21.7547 37.5706 20.8081L37.5819 20.8024ZM23.9577 6.37821C25.9523 6.37821 27.9526 6.37821 29.9472 6.37821C30.0937 6.37821 30.2965 6.474 30.3641 6.21481C30.5895 5.35838 30.1726 4.80056 29.2767 4.80056C27.0905 4.80056 24.91 4.80056 22.7238 4.80056C21.3659 4.80056 20.008 4.80056 18.6501 4.80056C18.3515 4.80056 18.0585 4.81747 17.8274 5.05411C17.4781 5.40909 17.557 5.86548 17.6359 6.24862C17.7035 6.56415 18.0979 6.37821 18.3345 6.37821C20.2052 6.39512 22.0815 6.38948 23.9521 6.38948L23.9577 6.37821ZM35.1872 42.4613C35.7563 41.5542 36.2521 40.6696 36.8438 39.8582C37.4241 39.0637 37.7227 38.2298 37.5819 37.2551C37.5819 37.2382 37.5819 37.2213 37.5819 37.21C37.6326 36.9114 37.5086 36.8043 37.1987 36.8043C35.8239 36.8156 34.4548 36.8043 33.0799 36.8043C32.9785 36.8043 32.8095 36.7592 32.8151 36.9057C32.8151 37.5255 32.601 38.2186 32.8884 38.7482C33.5701 40.0047 34.3871 41.1879 35.1872 42.4613ZM12.7508 42.3993C12.824 42.3486 12.8747 42.3317 12.8973 42.2923C13.6298 41.1316 14.3622 39.9709 15.0947 38.8102C15.1567 38.7144 15.1905 38.6186 15.1849 38.5059C15.1849 38.0383 15.1792 37.5706 15.1849 37.1029C15.1849 36.917 15.1511 36.81 14.9313 36.8156C13.4945 36.8212 12.0578 36.8156 10.621 36.8212C10.5252 36.8212 10.4125 36.8212 10.4069 36.9452C10.4069 37.5368 10.1984 38.2073 10.4688 38.7031C11.1506 39.9765 11.9789 41.171 12.7508 42.405V42.3993ZM5.84857 46.3942C6.17537 46.3942 6.50217 46.3942 6.8346 46.3942C7.98403 46.3942 7.97277 46.3942 7.98403 45.2617C7.98403 44.9067 7.91079 44.7433 7.52764 44.794C7.29663 44.8222 7.05998 44.7771 6.82334 44.7996C5.37528 44.9405 4.69914 43.9037 4.76112 42.7656C4.82873 41.5485 4.77802 41.5542 3.53281 41.5936C3.27926 41.6049 3.1722 41.6669 3.17784 41.9373C3.18911 43.1093 3.17784 44.2812 3.18911 45.4532C3.19474 46.0843 3.5159 46.3829 4.15823 46.3885C4.72168 46.3942 5.28513 46.3885 5.84294 46.3885L5.84857 46.3942ZM42.0894 46.3942C42.6191 46.3942 43.1487 46.3942 43.6784 46.3942C44.5123 46.3942 44.7884 46.1124 44.794 45.2673C44.794 44.4559 44.794 43.6446 44.794 42.8332C44.794 41.9692 44.3658 41.5598 43.5093 41.6049C43.5093 41.6049 43.4755 41.6049 43.4643 41.6049C43.2558 41.5767 43.1938 41.6725 43.1994 41.8753C43.2107 42.2979 43.2051 42.7149 43.1994 43.1375C43.1938 44.0784 42.4839 44.7884 41.5485 44.7996C41.1767 44.7996 40.7992 44.8165 40.4273 44.794C40.1118 44.7715 39.9709 44.8672 39.9991 45.1997C40.0216 45.4927 40.0272 45.7913 39.9991 46.0899C39.9765 46.3491 40.0723 46.4111 40.3146 46.4054C40.9062 46.3942 41.4978 46.4054 42.0894 46.4054V46.3942ZM31.1868 32.8264C31.1868 32.139 31.1868 31.4516 31.1868 30.7642C31.1868 30.6458 31.2318 30.4712 31.0853 30.4317C30.736 30.336 30.3641 30.3303 30.0317 30.4881C29.7387 30.6233 29.5978 30.8769 29.5978 31.2037C29.5978 32.2629 29.5978 33.3279 29.6035 34.3871C29.6035 34.8661 29.8796 35.1309 30.3585 35.1591C30.5275 35.1703 30.7022 35.1478 30.8712 35.1591C31.1304 35.1872 31.1924 35.0689 31.1868 34.8323C31.1755 34.1618 31.1868 33.4913 31.1868 32.8208V32.8264ZM8.7954 32.77C8.7954 32.0995 8.7954 31.429 8.7954 30.7585C8.7954 30.6289 8.84611 30.4768 8.65454 30.4036C7.92206 30.1162 7.20648 30.6008 7.20648 31.3952C7.20648 32.2686 7.20648 33.1419 7.20648 34.0153C7.20648 34.99 7.40932 35.1703 8.38972 35.176C8.73342 35.176 8.8123 35.052 8.80103 34.7365C8.78413 34.0829 8.7954 33.4236 8.7954 32.77ZM16.7851 32.7926C16.7851 32.7926 16.7794 32.7926 16.7738 32.7926C16.7738 33.1194 16.7738 33.4462 16.7738 33.7786C16.7738 34.1223 16.7738 34.466 16.7794 34.8097C16.7794 34.928 16.74 35.0633 16.8809 35.1422C17.4725 35.4971 18.3514 35.0182 18.3627 34.3252C18.374 33.4011 18.3627 32.4827 18.3627 31.5586C18.3627 30.6064 18.0754 30.3472 17.1288 30.3754C16.8696 30.381 16.7682 30.4599 16.7738 30.7304C16.7851 31.4178 16.7738 32.1052 16.7738 32.7926H16.7851ZM39.1764 32.77C39.1764 33.4574 39.1764 34.1392 39.1764 34.8266C39.1764 34.9393 39.1257 35.0745 39.2835 35.1478C39.9596 35.4859 40.7597 35.0182 40.7654 34.2688C40.771 33.3673 40.7654 32.4601 40.7654 31.5586C40.7654 30.6008 40.5062 30.3698 39.537 30.3754C39.244 30.3754 39.1652 30.4768 39.1708 30.7585C39.1877 31.429 39.1708 32.0995 39.1764 32.7644V32.77Z" fill="black"/>
<path d="M13.5903 30.7924C13.5903 31.198 13.6016 31.6037 13.5903 32.0094C13.579 32.4714 13.2353 32.8039 12.7902 32.8039C12.3789 32.8039 12.0183 32.4714 12.007 32.0376C11.9901 31.2093 11.9901 30.3867 12.007 29.5584C12.0127 29.1302 12.3789 28.7921 12.7902 28.7865C13.2241 28.7865 13.5847 29.1302 13.5959 29.5809C13.6072 29.9866 13.5959 30.3923 13.5959 30.798L13.5903 30.7924Z" fill="black"/>
<path d="M35.9873 30.7585C35.9873 31.1473 35.9873 31.5361 35.9873 31.9249C35.9817 32.4263 35.6549 32.7813 35.2041 32.7926C34.7477 32.8039 34.404 32.4602 34.3984 31.9587C34.3871 31.1642 34.3928 30.3698 34.3984 29.5753C34.404 29.1189 34.7703 28.7696 35.1929 28.7752C35.6324 28.7865 35.9704 29.1245 35.9817 29.5866C35.993 29.9754 35.9817 30.3641 35.9817 30.7529L35.9873 30.7585Z" fill="black"/>
</svg>
