<svg width="36" height="48" viewBox="0 0 36 48" fill="none" xmlns="http://www.w3.org/2000/svg">
<path d="M24.9275 0C25.0572 0.10713 25.2376 0.107127 25.3673 0.225534C25.9706 0.772462 26.6021 1.2912 27.1885 1.85504C28.0174 2.65006 28.8801 3.39997 29.7146 4.18935C30.5265 4.95618 31.3666 5.69482 32.1729 6.46729C33.0525 7.30177 33.9547 8.10806 34.8512 8.92C35.0993 9.14554 35.2177 9.40491 35.2177 9.74321C35.2177 21.3415 35.212 32.9397 35.2177 44.538C35.2177 45.3217 35.0598 46.0435 34.6031 46.6693C34.0336 47.4531 33.2611 47.9831 32.28 47.9831C22.7003 48 13.1206 47.9887 3.5353 48C2.85305 48 2.21026 47.9323 1.61823 47.5715C1.01492 47.2106 0.586395 46.7088 0.293197 46.0716C0.129682 45.7221 0.107131 45.3669 0.124046 44.9891C0.124046 44.9158 0.197345 44.7579 0 44.7974V2.99964C0.140961 3.02784 0.107129 2.92071 0.112767 2.85305C0.118405 2.55421 0.157876 2.27793 0.281922 1.99037C0.625866 1.20099 1.17279 0.659697 1.93962 0.281922C2.21026 0.146599 2.53166 0.197345 2.76847 0H24.9275ZM17.5806 30.4194C22.7962 30.4194 28.0117 30.4194 33.2329 30.425C33.543 30.425 33.6107 30.3461 33.6107 30.0416C33.5994 23.6589 33.6051 17.2705 33.6051 10.8878C33.6051 10.4029 33.6051 10.4029 33.1089 10.4029C30.4024 10.4029 27.6904 10.3916 24.9839 10.4085C24.375 10.4085 24.0141 10.0195 24.0197 9.4331C24.0423 6.94655 24.0197 4.46 24.0366 1.97345C24.0366 1.68589 23.969 1.61259 23.6758 1.61259C16.8646 1.62387 10.0533 1.62951 3.2421 1.61259C2.32867 1.61259 1.61823 2.40197 1.61823 3.25901C1.6295 12.2016 1.62387 21.1385 1.61823 30.081C1.61823 30.3686 1.69717 30.425 1.96781 30.425C7.17209 30.4194 12.382 30.4194 17.5863 30.4194H17.5806ZM17.6088 32.0489C12.3707 32.0489 7.13826 32.0489 1.90015 32.0432C1.64642 32.0432 1.60131 32.1222 1.60131 32.3477C1.61259 33.8193 1.61259 35.2966 1.61259 36.7682C1.61259 39.4747 1.62387 42.1811 1.61259 44.8876C1.61259 45.4289 2.12005 46.1844 2.74028 46.331C3.12933 46.4269 3.51274 46.4325 3.90179 46.4325C9.20756 46.4325 14.5133 46.4325 19.8191 46.4325C23.8337 46.4325 27.8426 46.4325 31.8572 46.4269C32.2237 46.4269 32.5902 46.3705 32.9115 46.1562C33.4077 45.8236 33.5994 45.3499 33.5994 44.7692C33.5994 40.6418 33.5994 36.5089 33.6051 32.3815C33.6051 32.0996 33.5205 32.0376 33.2555 32.0376C28.0399 32.0432 22.8244 32.0376 17.6088 32.0376V32.0489ZM25.6436 2.62187C25.6436 2.83613 25.6436 2.99401 25.6436 3.15188C25.6436 4.95618 25.6436 6.75484 25.6436 8.55914C25.6436 8.73393 25.6605 8.84106 25.8748 8.83543C27.961 8.82979 30.0416 8.83543 32.1278 8.83543C32.1842 8.83543 32.2575 8.86362 32.28 8.79032C32.297 8.72829 32.2519 8.67755 32.2067 8.63808C32.0038 8.45765 31.8008 8.28286 31.5978 8.10243C30.7746 7.35252 29.957 6.59697 29.1338 5.84705C28.5699 5.33396 27.9835 4.84905 27.4423 4.3134C26.8671 3.74392 26.2356 3.23646 25.6436 2.63315V2.62187Z" fill="black"/>
<path d="M12.8444 8.00094C15.4437 8.00094 18.043 8.00657 20.6367 7.9953C21.2626 7.9953 21.6291 8.37307 21.6291 8.99894C21.6291 11.1246 21.6291 13.2503 21.6291 15.376C21.6291 16.3176 21.6291 17.2592 21.6291 18.2009C21.6291 18.9282 21.302 19.2383 20.5803 19.2383C17.5919 19.2327 14.6036 19.2271 11.6096 19.2271C9.41057 19.2271 7.21722 19.2327 5.01823 19.2327C4.37545 19.2327 4.03714 18.8888 4.03714 18.246C4.03714 15.1505 4.03714 12.0493 4.03714 8.95384C4.03714 8.34489 4.38673 8.00658 4.9844 8.00658C7.60063 8.00658 10.2225 8.00658 12.8387 8.00658L12.8444 8.00094ZM11.2713 13.6112C9.3711 12.4666 7.51041 11.3502 5.62154 10.2112V17.0055C7.52169 15.8666 9.38238 14.7445 11.2713 13.6112ZM19.9939 10.2732C19.3793 10.5552 18.8662 10.9442 18.3137 11.2487C17.7498 11.5588 17.2311 11.9422 16.6729 12.2523C15.9624 12.647 15.2745 13.0812 14.5754 13.4984C14.4062 13.5999 14.4231 13.6225 14.5754 13.7183C15.2745 14.1581 15.9793 14.581 16.6898 15.0039C17.7047 15.6072 18.7196 16.2105 19.7345 16.8195C19.9544 16.9548 19.9995 16.9153 19.9995 16.6728C19.9995 14.5584 19.9995 12.4497 19.9995 10.2732H19.9939ZM7.89947 17.5073C7.89947 17.5073 7.92202 17.5468 7.9333 17.5637H17.7047C17.6934 17.4453 17.6314 17.4171 17.5863 17.3889C16.8589 16.9548 16.1316 16.515 15.4099 16.0808C14.6036 15.5959 13.7916 15.111 12.9853 14.6148C12.8726 14.5472 12.788 14.5415 12.6809 14.6148C12.196 14.9362 11.6829 15.2181 11.1867 15.5226C10.4142 16.0019 9.62483 16.4586 8.84109 16.9153C8.5197 17.1014 8.21522 17.31 7.90511 17.5073H7.89947ZM17.8118 9.64736H7.95021C7.95021 9.73194 7.98968 9.76577 8.02915 9.78832C8.38437 10.0026 8.7396 10.2112 9.08918 10.4255C9.71505 10.8089 10.3296 11.2092 10.9668 11.5701C11.5532 11.8971 12.1283 12.241 12.6865 12.6132C12.7654 12.6639 12.8331 12.6978 12.9346 12.6357C13.4533 12.3087 13.9721 11.9873 14.4964 11.6716C15.1505 11.2769 15.8215 10.8935 16.4699 10.4931C16.9097 10.2225 17.3777 9.9913 17.8118 9.653V9.64736Z" fill="black"/>
<path d="M18.043 20.8002C22.3451 20.8002 26.6472 20.8002 30.9494 20.8002C31.3328 20.8002 31.6711 20.8735 31.9023 21.2174C32.2744 21.7757 31.7387 22.3959 31.2256 22.4297C31.158 22.4297 31.0847 22.4297 31.017 22.4297C22.3451 22.4297 13.6676 22.4297 4.99564 22.4297C4.61787 22.4297 4.30775 22.3169 4.13296 21.9561C3.87923 21.4373 4.20062 20.8622 4.77574 20.8115C4.92234 20.7946 5.07458 20.8002 5.22682 20.8002C9.50075 20.8002 13.769 20.8002 18.043 20.8002Z" fill="black"/>
<path d="M17.9979 28.8181C13.645 28.8181 9.29214 28.8181 4.93926 28.8181C4.39797 28.8181 4.04838 28.5136 4.04275 28.0287C4.03147 27.5607 4.42052 27.1942 4.9449 27.1942C7.08187 27.1942 9.21883 27.1942 11.3558 27.1942C17.8626 27.1942 24.3749 27.1942 30.8817 27.1942C31.1185 27.1942 31.361 27.1829 31.5809 27.3182C31.8797 27.5043 32.0883 27.8708 32.0263 28.1584C31.953 28.491 31.5921 28.8011 31.2369 28.8124C30.9494 28.8237 30.6562 28.8124 30.363 28.8124C26.2413 28.8124 22.1196 28.8124 17.9979 28.8124V28.8181Z" fill="black"/>
<path d="M23.6307 25.621C21.1441 25.621 18.6576 25.621 16.171 25.621C15.8045 25.621 15.5395 25.4857 15.3365 25.1531C15.0546 24.6851 15.4493 24.0423 16.0526 23.9972C16.171 23.9915 16.2951 23.9972 16.4135 23.9972C21.2964 23.9972 26.1792 23.9972 31.0621 23.9972C31.4399 23.9972 31.7162 24.1212 31.9304 24.4595C32.2349 24.9444 31.7895 25.5534 31.2707 25.6154C31.1523 25.6323 31.0283 25.6154 30.9099 25.6154C28.4854 25.6154 26.0552 25.6154 23.6307 25.6154V25.621Z" fill="black"/>
<path d="M8.40129 25.6211C7.23978 25.6211 6.07826 25.6211 4.9111 25.6211C4.2063 25.6211 3.8398 25.0177 4.15555 24.4032C4.30215 24.1156 4.58971 24.0085 4.88291 24.0085C7.23977 23.9972 9.591 24.0028 11.9479 24.0085C12.3989 24.0085 12.8782 24.3975 12.8331 24.8486C12.7936 25.2828 12.4271 25.6267 11.9197 25.6267C10.7469 25.6267 9.57409 25.6267 8.40129 25.6267V25.6211Z" fill="black"/>
<path d="M27.5776 17.5637C26.3653 17.5637 25.153 17.5637 23.9408 17.5637C23.6307 17.5637 23.3487 17.3438 23.2585 17.0506C23.1627 16.7518 23.2585 16.4924 23.4559 16.2556C23.6419 16.0357 23.8957 16.0075 24.155 16.0075C26.4724 16.0075 28.7898 16.0075 31.1016 16.0075C31.4061 16.0075 31.688 16.0639 31.8741 16.3627C32.2067 16.8928 31.8966 17.5581 31.2764 17.5694C30.0416 17.5919 28.8124 17.575 27.5776 17.575C27.5776 17.575 27.5776 17.5694 27.5776 17.5637Z" fill="black"/>
<path d="M27.634 14.3724C26.4104 14.3724 25.1869 14.3724 23.9633 14.3724C23.5912 14.3724 23.2642 14.0397 23.2304 13.6676C23.2022 13.3011 23.4615 12.9515 23.8224 12.8556C23.9408 12.8218 24.0592 12.8162 24.1776 12.8162C26.4837 12.8162 28.7898 12.8162 31.096 12.8162C31.3835 12.8162 31.6542 12.8613 31.8346 13.115C32.0038 13.3518 32.1165 13.6112 31.953 13.8931C31.7895 14.175 31.5921 14.3893 31.2087 14.3836C30.0134 14.3667 28.8237 14.378 27.6283 14.378L27.634 14.3724Z" fill="black"/>
<path d="M12.85 5.61023C12.0663 5.61023 11.2882 5.60459 10.5044 5.61023C10.0646 5.61023 9.57408 5.24937 9.6361 4.73627C9.68684 4.33031 10.0646 3.96945 10.5777 3.96945C12.0832 3.97508 13.583 3.96945 15.0885 3.96945C15.2689 3.96945 15.4324 4.01456 15.6016 4.10477C15.9455 4.29084 16.0639 4.60095 16.0075 4.92798C15.9455 5.31139 15.6579 5.58204 15.2858 5.59332C14.7953 5.61023 14.3047 5.6046 13.8142 5.6046C13.4928 5.6046 13.1714 5.6046 12.85 5.6046V5.61023Z" fill="black"/>
<path d="M6.05008 5.61023C5.64975 5.61023 5.24942 5.62715 4.84909 5.61023C4.20067 5.5764 3.85109 4.93362 4.17248 4.38106C4.33599 4.09914 4.62355 3.98636 4.93366 3.98073C5.66666 3.96945 6.39401 3.96945 7.12701 3.98073C7.79235 3.992 8.17013 4.51638 7.94459 5.13661C7.84874 5.40725 7.60064 5.58204 7.30745 5.59895C6.8902 5.62151 6.46732 5.6046 6.04443 5.6046C6.04443 5.6046 6.04443 5.60459 6.04443 5.61023H6.05008Z" fill="black"/>
<path d="M14.4513 40.546C14.4513 39.9145 14.4513 39.3168 14.4513 38.7191C14.4513 37.3039 14.4513 35.8943 14.4513 34.479C14.4513 34.1351 14.5641 33.8532 14.9136 33.7066C15.4606 33.481 15.9511 33.7686 16.0131 34.3719C16.0188 34.4339 16.0131 34.4903 16.0131 34.5523C16.0131 37.6704 16.0131 40.7828 16.0131 43.9008C16.0131 44.2392 15.9342 44.5211 15.6072 44.7015C15.2181 44.9214 14.7501 44.803 14.5641 44.4591C14.2427 43.867 13.9607 43.2581 13.6563 42.6548C13.4082 42.1586 13.1488 41.668 12.9007 41.1718C12.585 40.546 12.2974 39.9032 11.9647 39.283C11.7392 38.8657 11.5982 38.409 11.2712 38.0087C11.2035 38.2906 11.2092 38.5556 11.2092 38.815C11.2092 40.5065 11.1979 42.2037 11.2205 43.8952C11.2261 44.4647 10.8427 44.8312 10.3916 44.7974C9.97437 44.7692 9.63607 44.4534 9.63607 44.0249C9.63607 41.5214 9.63607 39.018 9.63607 36.5089C9.63607 35.7984 9.63607 35.088 9.63607 34.3775C9.63607 33.9885 9.88979 33.684 10.2788 33.6051C10.6059 33.5374 10.9893 33.7404 11.1415 34.0505C11.4573 34.682 11.7899 35.3079 12.1057 35.9394C12.4214 36.5709 12.7146 37.2193 13.0304 37.8508C13.2729 38.3357 13.5322 38.8093 13.7747 39.2943C13.9438 39.6269 14.1017 39.9709 14.2596 40.3092C14.2934 40.3881 14.2991 40.484 14.4457 40.5347L14.4513 40.546Z" fill="black"/>
<path d="M24.0254 39.2266C24.0254 39.7848 24.048 40.3486 24.0254 40.9068C23.9577 42.1642 23.4559 43.2017 22.4354 43.9798C21.6685 44.5662 20.8228 44.8312 19.8642 44.803C19.4019 44.7917 18.9395 44.803 18.4828 44.803C17.9641 44.803 17.654 44.4985 17.654 43.9685C17.654 42.7675 17.654 41.5665 17.654 40.3599C17.654 38.4147 17.6652 36.475 17.6483 34.5298C17.6483 33.9659 17.9866 33.5882 18.573 33.6051C19.4019 33.6276 20.242 33.5318 21.0539 33.7404C21.584 33.8757 22.0632 34.1351 22.4974 34.4734C23.0669 34.9132 23.4954 35.477 23.7435 36.148C23.8957 36.5596 24.048 36.9881 24.0367 37.4505C24.0254 38.0425 24.0367 38.6346 24.0367 39.221L24.0254 39.2266ZM19.2102 39.2435C19.2102 40.3148 19.2102 41.3861 19.2102 42.4574C19.2102 43.2355 19.2102 43.2412 19.9939 43.2299C20.8002 43.2186 21.4543 42.8859 21.9561 42.2601C22.3113 41.8146 22.4128 41.279 22.4128 40.7208C22.4128 39.7397 22.4128 38.7586 22.4128 37.7775C22.4128 37.4449 22.4072 37.1065 22.2944 36.8021C21.973 35.9281 21.0596 35.1444 19.9996 35.2402C19.8304 35.2571 19.6556 35.2571 19.4865 35.2402C19.2666 35.2177 19.1989 35.2853 19.1989 35.5165C19.2102 36.757 19.2045 38.0031 19.2045 39.2435H19.2102Z" fill="black"/>
<path d="M25.6379 39.1871C25.6379 37.676 25.6549 36.1593 25.6323 34.6482C25.621 33.9378 25.9593 33.5938 26.681 33.6107C27.4704 33.6276 28.2711 33.5487 29.0379 33.7517C29.6638 33.9152 30.2333 34.2197 30.7125 34.6651C31.1298 35.0598 31.4512 35.5222 31.6823 36.0522C31.8853 36.5145 32.015 36.9938 32.0263 37.49C32.0545 38.6797 32.0714 39.875 32.0263 41.0647C31.9925 41.8992 31.6767 42.6604 31.1354 43.3088C30.3066 44.2956 29.2578 44.8256 27.9497 44.803C27.4592 44.7974 26.9686 44.803 26.4781 44.803C25.9762 44.803 25.6774 44.5324 25.6549 44.0193C25.6323 43.5006 25.6436 42.9762 25.6436 42.4574C25.6436 41.3636 25.6436 40.2754 25.6436 39.1815L25.6379 39.1871ZM27.2167 39.2266C27.2167 40.4671 27.2167 41.7075 27.2167 42.9536C27.2167 43.072 27.166 43.2186 27.3802 43.2299C27.8651 43.2581 28.3669 43.2694 28.8011 43.0946C29.7258 42.7281 30.3742 42.0966 30.3968 40.9576C30.425 39.7961 30.4081 38.6346 30.3968 37.4731C30.3911 36.5427 29.7878 35.8041 28.9759 35.4094C28.491 35.1726 27.9948 35.2854 27.5099 35.2402C27.2844 35.2177 27.2054 35.2853 27.2054 35.5334C27.2167 36.7626 27.2111 37.9974 27.2111 39.2266H27.2167Z" fill="black"/>
<path d="M6.45038 39.2266C6.45038 40.4614 6.45602 41.6906 6.44475 42.9254C6.44475 43.1735 6.53496 43.2355 6.75486 43.2299C6.95221 43.2299 7.15519 43.2299 7.35253 43.2524C7.80925 43.3145 8.0517 43.7035 8.01223 44.0926C7.97276 44.5155 7.6401 44.8087 7.21157 44.8087C6.15719 44.8087 5.10843 44.8087 4.05405 44.8087C3.64244 44.8087 3.2985 44.5267 3.25903 44.1997C3.18573 43.5851 3.57479 43.2694 3.98075 43.2412C4.1781 43.2299 4.38108 43.2242 4.58406 43.2299C4.75885 43.2355 4.83215 43.1791 4.83215 42.9931C4.83215 40.4896 4.83215 37.9861 4.83215 35.477C4.83215 35.2853 4.76449 35.2402 4.58406 35.2402C4.25139 35.2402 3.90745 35.2966 3.60297 35.0598C3.28722 34.8173 3.17445 34.5636 3.26467 34.1746C3.32105 33.9377 3.71011 33.622 3.99767 33.622C5.08025 33.6107 6.16282 33.6051 7.2454 33.622C7.6852 33.6333 8.01223 33.9885 8.00659 34.4057C8.00659 34.8117 7.65701 35.1951 7.25668 35.2402C7.22849 35.2402 7.19466 35.2402 7.16647 35.2402C6.92965 35.2628 6.61953 35.1274 6.48421 35.3022C6.37144 35.4488 6.44475 35.742 6.44475 35.9732C6.44475 37.0558 6.44475 38.1384 6.44475 39.221L6.45038 39.2266Z" fill="black"/>
</svg>
