<svg width="47" height="40" viewBox="0 0 47 40" fill="none" xmlns="http://www.w3.org/2000/svg">
<path d="M0 34.0544C1.06742 32.1634 2.60082 30.6246 3.94457 28.9395C7.07639 25.0111 10.2732 21.1262 13.4213 17.2141C14.0227 16.4664 14.7542 16.1142 15.7078 16.125C17.8427 16.1467 19.9721 16.1359 22.1069 16.1304C22.4645 16.1304 22.7571 16.2388 22.9359 16.5639C23.0768 16.824 23.0606 17.0787 22.9089 17.3279C22.73 17.6205 22.4429 17.6963 22.134 17.7018C21.7764 17.7126 21.4134 17.7126 21.0504 17.6963C20.8336 17.6855 20.7469 17.7505 20.6982 17.9835C20.5139 18.7963 20.3026 19.6036 20.0859 20.4109C20.0263 20.6331 20.048 20.7361 20.3135 20.7469C20.5031 20.7469 20.7144 20.7902 20.877 20.8769C21.1641 21.0286 21.305 21.305 21.2562 21.6301C21.2075 21.9714 20.9853 22.1882 20.6548 22.2857C20.5952 22.302 20.5356 22.3074 20.4814 22.3182C20.1888 22.367 19.815 22.1828 19.6253 22.4212C19.4574 22.6325 19.4519 22.9792 19.3815 23.2718C19.116 24.3447 18.8505 25.4175 18.5796 26.4849C18.5037 26.7884 18.5146 26.9292 18.9101 26.9292C21.7331 26.913 24.556 26.913 27.379 26.9292C27.7258 26.9292 27.8233 26.8642 27.7149 26.4958C27.5253 25.8672 27.4061 25.2225 27.2598 24.5831C27.1568 24.1225 27.3953 23.7053 27.8125 23.6024C28.2514 23.494 28.6361 23.7162 28.7553 24.1984C28.9558 24.9786 29.1237 25.7589 29.3134 26.5445C29.3675 26.7613 29.4055 26.9401 29.736 26.9401C32.7107 26.9238 35.6854 26.9292 38.66 26.9292C38.7034 26.9292 38.7467 26.9184 38.7847 26.913C38.8714 26.8046 38.7847 26.7396 38.7305 26.6746C37.6847 25.3037 36.639 23.9329 35.5933 22.5566C35.474 22.3995 35.3386 22.329 35.1381 22.3345C34.5963 22.3453 34.0544 22.3399 33.518 22.3345C32.9328 22.3345 32.5698 22.0256 32.5535 21.5488C32.5373 21.072 32.8841 20.7848 33.5018 20.7631C33.6968 20.7577 33.8865 20.7631 34.0978 20.7631C34.0815 20.4814 33.881 20.2917 33.9461 20.0371C34.0273 19.7228 34.2062 19.479 34.5204 19.4031C34.8726 19.3164 35.1598 19.4627 35.3819 19.7553C36.2922 20.9474 37.2079 22.1394 38.1236 23.3314C40.6052 26.5716 43.0868 29.8172 45.5685 33.0574C46.7497 34.6016 46.067 36.5252 44.1976 36.9044C44.008 36.9424 43.8075 36.937 43.6178 36.937C29.9636 36.937 16.3093 36.937 2.655 36.9424C1.40336 36.9424 0.525583 36.4493 0.10295 35.2356C0.0921135 35.1977 0.0487646 35.1706 0.0162544 35.1435C0.0162544 34.7805 0.0162544 34.4228 0.0162544 34.0598L0 34.0544ZM37.7064 35.3765C39.6299 35.3765 41.548 35.3765 43.4715 35.3765C43.8671 35.3765 44.2681 35.3927 44.501 34.9755C44.7557 34.515 44.4848 34.179 44.2193 33.8431C42.9135 32.1417 41.6076 30.4403 40.3126 28.7281C40.1609 28.5277 39.9984 28.4572 39.7491 28.4572C36.5686 28.4572 33.3826 28.4626 30.202 28.4464C29.8281 28.4464 29.7739 28.5656 29.8498 28.8853C30.3374 30.9388 30.8197 32.9924 31.3019 35.0514C31.3561 35.2844 31.4428 35.3873 31.7191 35.3819C33.7185 35.3656 35.7125 35.3711 37.7118 35.3711L37.7064 35.3765ZM16.4827 28.4897C16.3851 28.4789 16.3093 28.4626 16.2388 28.4626C13.0258 28.4626 9.81808 28.4626 6.60499 28.4518C6.33407 28.4518 6.19861 28.5873 6.05231 28.7661C5.45088 29.5138 4.84944 30.2615 4.248 31.0093C3.42982 32.0225 2.60082 33.0357 1.78806 34.0544C1.4142 34.5204 1.51714 35.0839 1.99396 35.2952C2.20528 35.3873 2.43285 35.3819 2.66042 35.3819C6.21487 35.3819 9.77473 35.3819 13.3292 35.3819C13.7952 35.3819 14.3533 35.5228 14.6946 35.3169C15.0468 35.1056 14.9655 34.4824 15.101 34.0436C15.101 34.0273 15.1172 34.0165 15.1227 34.0056C15.5778 32.1742 16.0275 30.3482 16.4881 28.5006L16.4827 28.4897ZM23.066 35.3765C25.1683 35.3765 27.2706 35.3765 29.373 35.3765C29.5789 35.3765 29.8119 35.4415 29.7252 35.0676C29.2267 32.9761 28.739 30.8846 28.2622 28.7932C28.208 28.5439 28.1213 28.4518 27.8504 28.4518C24.7132 28.4626 21.5759 28.4572 18.4333 28.4518C18.1895 28.4518 18.0702 28.506 18.0052 28.7769C17.5122 30.8196 17.0137 32.8624 16.4827 34.8942C16.3689 35.3331 16.5098 35.3873 16.8945 35.3873C18.9534 35.3765 21.007 35.3819 23.066 35.3819V35.3765ZM7.61281 26.8696C7.73743 26.9021 7.76452 26.913 7.79161 26.913C10.7175 26.913 13.638 26.913 16.5639 26.9184C16.8024 26.9184 16.8999 26.8425 16.9541 26.5987C17.2629 25.3091 17.5826 24.025 17.9185 22.7463C18.0052 22.4212 17.9673 22.3074 17.5934 22.3128C15.5995 22.3291 13.6055 22.3236 11.6116 22.3128C11.3786 22.3128 11.2214 22.3832 11.0806 22.5675C10.5875 23.1906 10.0836 23.8028 9.57967 24.4205C8.93489 25.2225 8.2901 26.019 7.61281 26.8642V26.8696ZM12.6465 20.6548C12.7277 20.6981 12.7494 20.7252 12.7765 20.7252C14.5754 20.736 16.3743 20.7415 18.1732 20.7469C18.3791 20.7469 18.4441 20.6223 18.4875 20.438C18.6771 19.6415 18.8668 18.845 19.0835 18.0594C19.1702 17.7505 19.0564 17.7018 18.7855 17.7072C17.691 17.7126 16.5965 17.7072 15.5019 17.7072C15.1985 17.7072 14.9547 17.8047 14.7596 18.0485C14.0661 18.9155 13.3671 19.7716 12.6465 20.6602V20.6548Z" fill="black"/>
<path d="M42.9893 0C43.1248 0.167969 43.3361 0.135458 43.5095 0.189642C46.1049 1.00782 47.0477 4.38346 45.1784 6.37742C43.5149 8.14922 41.7594 9.83433 40.0363 11.5574C37.0616 14.5321 34.0815 17.4959 31.1231 20.4814C30.6734 20.9366 30.099 21.0829 29.5464 21.2996C27.6229 22.0473 25.6939 22.7842 23.765 23.5265C23.5699 23.6024 23.3803 23.6999 23.1581 23.662C22.6542 23.5807 22.3562 23.0822 22.5513 22.5675C23.4345 20.2484 24.3339 17.9348 25.2279 15.6211C25.3092 15.4044 25.4609 15.2419 25.6235 15.0793C30.137 10.5712 34.6559 6.06315 39.1477 1.53882C39.8629 0.818175 40.6703 0.30343 41.6347 0.00541952H42.9893V0ZM41.3855 7.04929C41.353 6.85423 41.3692 6.64834 41.3205 6.43702C41.2338 6.07941 41.1254 6.1065 40.9033 6.33407C40.3073 6.94635 39.695 7.54778 39.0881 8.14922C38.6926 8.54476 38.2374 8.58269 37.9015 8.25759C37.5601 7.92707 37.5872 7.46651 37.9828 7.07097C38.5842 6.46411 39.1911 5.86267 39.7925 5.25582C39.8738 5.17454 40.0255 5.11494 39.9767 4.97948C39.9442 4.88195 39.8033 4.88737 39.7004 4.86027C38.7901 4.62729 38.0207 4.88737 37.3651 5.53757C34.2008 8.7019 31.0364 11.8608 27.8721 15.0251C27.6174 15.2798 27.1948 15.5345 27.1785 15.8054C27.1623 16.1305 27.6554 16.331 27.8775 16.6235C28.078 16.8836 28.2189 16.8457 28.4356 16.6235C29.7306 15.3069 31.0418 14.0119 32.3477 12.7061C33.323 11.7308 34.2929 10.75 35.2736 9.78015C35.7341 9.31959 36.3247 9.37377 36.5902 9.88852C36.7961 10.3003 36.6282 10.62 36.3193 10.9234C34.2224 13.0095 32.1309 15.101 30.0449 17.1925C29.7848 17.4526 29.3188 17.6801 29.3405 18.0052C29.3621 18.2816 29.8064 18.5091 30.034 18.7855C30.2345 19.0239 30.3645 19.0401 30.5975 18.8071C33.9515 15.4315 37.3163 12.0721 40.6811 8.7019C41.1363 8.24675 41.3801 7.70492 41.3747 7.04388L41.3855 7.04929ZM39.7221 3.23476C41.4884 3.61405 42.5234 4.69231 42.9406 6.46953C43.3957 5.97646 43.8942 5.61343 44.2356 5.09868C44.8587 4.16131 44.6636 2.84464 43.8183 2.124C42.9622 1.39252 41.6347 1.38168 40.8057 2.124C40.4427 2.4491 40.1176 2.82839 39.7275 3.23476H39.7221ZM28.9666 19.8529C28.0943 18.9968 27.2761 18.1949 26.4579 17.3875C26.3008 17.2304 26.2466 17.3171 26.187 17.4742C26.0461 17.8535 25.9052 18.2328 25.7481 18.6012C25.6777 18.7638 25.6722 18.8613 25.8402 18.9697C26.3712 19.3219 26.8209 19.7608 27.1677 20.2918C27.249 20.4164 27.3411 20.4977 27.4982 20.4327C27.9534 20.2539 28.4085 20.075 28.9612 19.8529H28.9666ZM24.6319 21.5001C24.9245 21.3971 25.1033 21.3375 25.2821 21.2725C25.8781 21.0503 25.8781 21.0287 25.4013 20.5898C25.1846 20.3893 25.0383 20.3026 24.9408 20.6819C24.8812 20.9203 24.7674 21.1479 24.6319 21.5001Z" fill="black"/>
<path d="M10.0023 38.4596C12.2509 38.4596 14.505 38.4596 16.7536 38.4596C17.3388 38.4596 17.6368 38.698 17.6693 39.164C17.7018 39.5866 17.4309 39.928 17.0137 39.9876C16.9107 40.0038 16.8023 39.9984 16.6994 39.9984C12.2292 39.9984 7.75367 39.9984 3.28352 39.9984C3.12096 39.9984 2.95842 40.0146 2.79587 39.9442C2.43825 39.7762 2.26486 39.5053 2.32447 39.1152C2.38407 38.7359 2.61164 38.4867 3.01802 38.4758C3.64655 38.4596 4.28049 38.465 4.90903 38.465C6.60497 38.465 8.30092 38.465 9.99687 38.465L10.0023 38.4596Z" fill="black"/>
<path d="M21.901 38.465C22.2912 38.465 22.6813 38.4541 23.066 38.465C23.5049 38.4812 23.8625 38.8388 23.8516 39.229C23.8462 39.6299 23.4994 39.9821 23.0551 39.9875C22.2912 40.0038 21.5272 40.0038 20.7632 39.9875C20.3135 39.9767 19.9992 39.6408 19.9992 39.2181C19.9992 38.7847 20.2972 38.4812 20.7686 38.465C21.1425 38.4487 21.5163 38.465 21.8902 38.465H21.901Z" fill="black"/>
</svg>
