<svg width="49" height="48" viewBox="0 0 49 48" fill="none" xmlns="http://www.w3.org/2000/svg">
<path d="M0.00563748 36.5616V1.77267C0.140937 1.69375 0.146574 1.54153 0.208587 1.41751C0.64831 0.538063 1.33608 0.00250555 2.34519 0.00250555C16.7828 -0.00313193 31.2204 0.00250555 45.6523 0.00250555C46.9827 0.00250555 48.0144 1.04544 48.0144 2.38152C48.0144 13.5832 48.0144 24.7849 48.0144 35.9865C48.0144 36.1726 48.0031 36.3642 47.958 36.539C47.6423 37.7229 46.7122 38.4163 45.4324 38.4163C40.5729 38.4163 35.7134 38.4163 30.8539 38.4107C30.5157 38.4107 30.386 38.4727 30.3973 38.8447C30.4255 39.6396 30.4142 40.4401 30.4029 41.235C30.4029 41.5 30.4706 41.6071 30.7694 41.6353C32.393 41.7931 33.4979 42.6669 34.1406 44.1496C34.5296 45.046 34.3717 45.9931 34.4224 46.9176C34.4506 47.4137 34.2871 47.7689 33.8531 48H14.0711C13.654 47.6505 13.5525 47.1938 13.5976 46.6696C13.6314 46.2637 13.5976 45.8578 13.6032 45.4519C13.6314 43.5126 15.2832 41.7537 17.2169 41.6297C17.5269 41.6127 17.6171 41.5056 17.6115 41.2068C17.5946 40.474 17.6115 39.7411 17.6115 39.0026C17.6115 38.608 17.4085 38.4107 17.0026 38.4107C12.2051 38.4107 7.40765 38.4107 2.61015 38.4107C1.60668 38.4107 0.834347 38.016 0.298786 37.1591C0.174762 36.9675 0.214224 36.6969 0 36.5503L0.00563748 36.5616ZM24.0044 30.3829C31.3049 30.3829 38.5998 30.3829 45.9004 30.3942C46.3457 30.3942 46.4359 30.2645 46.4359 29.8473C46.4246 22.8005 46.4246 15.748 46.4246 8.70114C46.4246 8.00209 46.4246 8.00208 45.72 8.00208C31.2034 8.00208 16.6813 7.99081 2.16479 7.97954C1.73071 7.97954 1.58977 8.08665 1.58977 8.55456C1.60668 15.6634 1.60668 22.7779 1.58977 29.8868C1.58977 30.3152 1.70816 30.3942 2.10842 30.3942C9.40895 30.3829 16.7038 30.3829 24.0044 30.3829ZM24.0608 32.0008C17.5438 32.0008 11.0269 32.0008 4.50998 32.0008C3.7151 32.0008 2.91458 32.0121 2.11969 31.9839C1.73634 31.9726 1.57286 32.0516 1.58977 32.4969C1.62923 33.5399 1.60104 34.5884 1.60104 35.637C1.60104 36.5616 1.84346 36.7927 2.768 36.7927C12.1262 36.7927 21.4901 36.7927 30.8483 36.7927C35.6627 36.7927 40.4715 36.7871 45.2859 36.7814C46.1991 36.7814 46.419 36.5446 46.419 35.6483C46.419 34.6504 46.419 33.647 46.419 32.6491C46.419 32.2207 46.1991 32.0046 45.7594 32.0008C45.7256 32.0008 45.6974 32.0008 45.6636 32.0008C38.4589 32.0008 31.2542 32.0008 24.0495 32.0008H24.0608ZM24.01 6.37285C31.3049 6.37285 38.5998 6.37286 45.8947 6.38413C46.3457 6.38413 46.4359 6.24319 46.4303 5.83166C46.4077 4.78309 46.4246 3.74015 46.419 2.69158C46.419 1.85723 46.1371 1.581 45.2859 1.581C31.102 1.581 16.9124 1.581 2.72854 1.581C1.85473 1.581 1.60104 1.84032 1.59541 2.73104C1.59541 3.74579 1.62359 4.76054 1.58413 5.77528C1.56722 6.24883 1.68561 6.37849 2.17043 6.37849C9.44841 6.36158 16.732 6.36722 24.01 6.36722V6.37285ZM23.9706 46.4102C25.8309 46.4102 27.6857 46.4102 29.546 46.4102C30.5157 46.4102 31.4797 46.4046 32.4493 46.4159C32.7312 46.4159 32.8158 46.3369 32.8327 46.0494C32.9229 44.206 31.7108 43.18 30.0929 43.1969C26.0339 43.2476 21.9749 43.2476 17.9159 43.1969C16.3938 43.1743 15.1423 44.1778 15.1874 45.931C15.1986 46.32 15.2945 46.4215 15.6835 46.4215C18.4458 46.4046 21.2082 46.4102 23.9706 46.4102ZM24.0044 41.6015C25.4589 41.6015 26.9133 41.6015 28.3622 41.6071C28.6609 41.6071 28.8132 41.5733 28.8019 41.2068C28.7737 40.395 28.7906 39.5832 28.8019 38.7715C28.8019 38.5121 28.7342 38.4163 28.4636 38.4163C25.4927 38.4219 22.5274 38.4219 19.5564 38.4163C19.2915 38.4163 19.2125 38.5008 19.2182 38.7658C19.2351 39.5776 19.2407 40.3894 19.2182 41.2012C19.2069 41.5507 19.3366 41.6127 19.6466 41.6127C21.1011 41.5958 22.5556 41.6071 24.0044 41.6071V41.6015Z" fill="black"/>
<path d="M37.9853 48C36.9988 47.5659 36.7845 46.7654 36.7845 45.7619C36.7845 42.8191 38.8648 40.6036 41.3453 40.0906C43.8878 39.5663 46.7234 41.1054 47.648 43.5633C48.0257 44.5668 48.0764 45.5984 47.9975 46.6357C47.9468 47.3404 47.4168 47.735 46.7967 47.9944H37.9797L37.9853 48ZM42.4051 46.4102C43.4819 46.4102 44.5586 46.4102 45.6354 46.4102C46.1766 46.4102 46.4397 46.1321 46.4246 45.5759C46.3739 43.8057 45.2633 42.3061 43.651 41.7988C43.324 41.6973 43.2056 41.7255 43.2282 42.0919C43.2507 42.464 43.2507 42.8417 43.2282 43.2138C43.2 43.6704 42.8223 44.0143 42.3995 44.003C41.9879 43.9917 41.661 43.6704 41.6328 43.2138C41.6102 42.9037 41.6215 42.588 41.6215 42.278C41.6215 41.8457 41.4223 41.7048 41.0239 41.8551C40.9676 41.8777 40.9055 41.9002 40.8492 41.9228C39.141 42.7402 38.3743 44.1101 38.4363 45.9874C38.4476 46.3087 38.5096 46.4159 38.8479 46.4102C40.0317 46.3877 41.2212 46.4046 42.4051 46.4046V46.4102Z" fill="black"/>
<path d="M23.9649 17.6084C18.4965 17.6084 13.0282 17.6084 7.55984 17.6084C6.67476 17.6084 6.39288 17.3265 6.39288 16.4245C6.39288 14.5021 6.39288 12.5797 6.39288 10.6574C6.39288 9.90194 6.72549 9.56369 7.47528 9.56369C18.4909 9.56369 29.5065 9.56369 40.5222 9.56369C41.334 9.56369 41.6384 9.88502 41.6384 10.7081C41.6384 12.6305 41.6384 14.5529 41.6384 16.4752C41.6384 17.3039 41.3396 17.6027 40.5165 17.6027C35.0031 17.6027 29.484 17.6027 23.9705 17.6027L23.9649 17.6084ZM19.314 13.5381C19.111 13.4874 18.9137 13.4366 18.7108 13.3972C16.2867 12.9349 13.8625 12.4726 11.4384 12.0104C10.435 11.8187 9.42585 11.6214 8.42237 11.4353C8.22506 11.3959 8.01084 11.3451 8.01084 11.689C8.02775 12.9405 8.03339 14.1864 8.02775 15.4379C8.02775 15.7593 8.17432 15.7987 8.43365 15.748C8.82827 15.6691 9.2229 15.5958 9.62316 15.5169C12.1826 15.032 14.742 14.5529 17.2958 14.0511C17.9666 13.9215 18.6544 13.8482 19.314 13.5381ZM28.6891 13.5325C28.6891 13.5663 28.6891 13.6001 28.6891 13.6396C28.7455 13.6565 28.7962 13.6847 28.8526 13.6903C30.8201 14.0624 32.7876 14.4345 34.755 14.8122C36.3223 15.111 37.8951 15.4154 39.4623 15.7255C40.0035 15.8326 40.0092 15.8438 40.0092 15.297C40.0204 14.1751 40.0204 13.0477 40.0261 11.9258C40.0261 11.3733 40.0148 11.3677 39.4736 11.4692C36.9086 11.9596 34.3491 12.4444 31.7841 12.9349C30.7524 13.1322 29.7264 13.3352 28.6947 13.5381L28.6891 13.5325ZM16.5009 15.8551C16.5009 15.8889 16.5065 15.9228 16.5122 15.951H31.3782C31.226 15.8213 31.0625 15.7649 30.899 15.7311C28.9935 15.359 27.0881 14.9757 25.177 14.6318C24.6809 14.5416 24.2017 14.3612 23.6605 14.4739C22.1045 14.7953 20.543 15.0715 18.9814 15.3647C18.1527 15.5225 17.3239 15.6916 16.4952 15.8495L16.5009 15.8551ZM16.3656 11.2098L16.3543 11.2944C16.5122 11.3339 16.6644 11.3846 16.8222 11.4184C18.8517 11.8018 20.8868 12.1851 22.9163 12.5628C23.4293 12.6587 23.9311 12.8165 24.4835 12.7038C26.0339 12.3824 27.5954 12.1062 29.1514 11.813C29.9914 11.6552 30.8313 11.4804 31.6713 11.3169C31.6713 11.2831 31.6601 11.2493 31.6601 11.2155H16.3712L16.3656 11.2098Z" fill="black"/>
<path d="M36.7676 24.8187C35.4992 24.8187 34.2364 24.8187 32.968 24.8187C32.5959 24.8187 32.2971 24.6947 32.1054 24.3564C31.9532 24.0858 31.9814 23.8209 32.1449 23.5615C32.3197 23.274 32.6072 23.1782 32.906 23.1782C35.5161 23.1725 38.1263 23.1669 40.7364 23.1782C41.2776 23.1782 41.6384 23.5559 41.6271 24.0069C41.6159 24.4523 41.2381 24.8074 40.7026 24.813C39.3891 24.8243 38.0755 24.813 36.762 24.813L36.7676 24.8187Z" fill="black"/>
<path d="M11.1904 24.8187C9.89375 24.8187 8.60277 24.83 7.30615 24.8187C6.77623 24.8187 6.39851 24.4579 6.39288 24.0069C6.38724 23.5559 6.75368 23.2176 7.28924 23.1782C7.38507 23.1725 7.47527 23.1782 7.57111 23.1782C9.97268 23.1782 12.3742 23.1782 14.7758 23.1782C14.8829 23.1782 14.9957 23.1782 15.1028 23.1782C15.6496 23.212 16.0217 23.539 16.0217 23.9843C16.0217 24.4522 15.6383 24.813 15.069 24.813C13.7723 24.8243 12.4814 24.813 11.1847 24.813L11.1904 24.8187Z" fill="black"/>
<path d="M23.9931 24.8187C22.7416 24.8187 21.4957 24.8187 20.2442 24.8187C19.9341 24.8187 19.6523 24.7623 19.4324 24.5368C19.0547 24.1535 19.1843 23.5051 19.6748 23.2796C19.8778 23.1894 20.092 23.1725 20.3175 23.1725C22.736 23.1725 25.1544 23.1725 27.5785 23.1725C27.7195 23.1725 27.8604 23.1725 28.0014 23.1838C28.5651 23.2515 28.7906 23.539 28.7399 24.1929C28.706 24.6327 28.3509 24.7792 27.9732 24.8074C27.5673 24.8356 27.1614 24.8187 26.7555 24.8187C25.8366 24.8187 24.912 24.8187 23.9931 24.8187Z" fill="black"/>
<path d="M11.2186 19.9761C12.4983 19.9761 13.778 19.9705 15.0577 19.9761C15.6835 19.9761 16.0499 20.3538 15.9766 20.8837C15.9203 21.3235 15.644 21.5715 15.131 21.5884C14.5673 21.6053 14.0091 21.5884 13.4454 21.5884C11.4328 21.5884 9.42024 21.5941 7.40202 21.5941C6.63533 21.5941 6.17305 21.019 6.47748 20.4327C6.66351 20.0776 6.97921 19.9536 7.3682 19.9536C8.64791 19.9536 9.92761 19.9536 11.2073 19.9536C11.2073 19.9536 11.2073 19.9536 11.2073 19.9592L11.2186 19.9761Z" fill="black"/>
<path d="M36.7845 21.6053C35.533 21.6053 34.2871 21.6053 33.0356 21.6053C32.4042 21.6053 31.9983 21.2671 32.004 20.7653C32.0096 20.2974 32.4211 19.9761 33.0356 19.9761C35.5669 19.9761 38.0981 19.9761 40.6293 19.9761C41.0127 19.9761 41.334 20.0719 41.5313 20.4384C41.6835 20.7202 41.6441 20.9796 41.4862 21.2333C41.272 21.5715 40.9337 21.6053 40.5786 21.6053C39.3158 21.6053 38.0473 21.6053 36.7845 21.6053Z" fill="black"/>
<path d="M11.1847 28.0095C9.88811 28.0095 8.59149 28.0095 7.29487 28.0095C6.89461 28.0095 6.61837 27.8291 6.45489 27.457C6.31959 27.1357 6.4267 26.882 6.63529 26.6452C6.86642 26.3803 7.18776 26.3859 7.50346 26.3859C9.83174 26.3859 12.16 26.3859 14.4883 26.3859C14.6912 26.3859 14.8942 26.3803 15.0971 26.3859C15.6609 26.4084 16.0161 26.7185 16.0161 27.1751C16.0161 27.6656 15.6496 28.0039 15.0802 28.0039C13.9866 28.0095 12.8929 28.0039 11.7992 28.0039C11.5963 28.0039 11.3933 28.0039 11.1904 28.0039L11.1847 28.0095Z" fill="black"/>
<path d="M36.7958 28.0095C35.4992 28.0095 34.2026 28.0095 32.906 28.0095C32.4268 28.0095 32.1054 27.7445 32.0265 27.3274C31.9589 26.9609 32.128 26.6903 32.4268 26.5043C32.6354 26.3746 32.8778 26.3972 33.1089 26.3972C34.7945 26.3972 36.4801 26.3972 38.1714 26.3972C38.9832 26.3972 39.795 26.3972 40.6068 26.3972C41.2438 26.3972 41.6159 26.696 41.6271 27.1864C41.6384 27.6769 41.2212 28.0151 40.5898 28.0208C39.327 28.0208 38.0586 28.0208 36.7958 28.0208V28.0095Z" fill="black"/>
<path d="M24.0044 28.0095C22.7416 28.0095 21.4731 28.0095 20.2104 28.0095C19.5902 28.0095 19.2294 27.6994 19.2294 27.1921C19.2294 26.6847 19.5508 26.3972 20.1765 26.3915C22.7416 26.3803 25.301 26.3803 27.866 26.3915C28.4918 26.3915 28.785 26.6734 28.7793 27.2033C28.7737 27.7333 28.4693 28.0095 27.8548 28.0151C26.5751 28.0208 25.2897 28.0151 24.01 28.0151L24.0044 28.0095Z" fill="black"/>
<path d="M24.0438 19.9761C25.2897 19.9761 26.5412 19.9761 27.7871 19.9761C28.0126 19.9761 28.2268 19.993 28.4129 20.117C28.582 20.2298 28.7455 20.3538 28.582 20.6075C28.52 20.7033 28.4862 20.8612 28.52 20.9626C28.6891 21.4756 28.3509 21.5433 27.9901 21.5884C27.8491 21.6053 27.7082 21.5997 27.5673 21.5997C25.1206 21.5997 22.6683 21.5997 20.2216 21.5997C19.5902 21.5997 19.2294 21.3122 19.2238 20.7992C19.2181 20.2974 19.5846 19.9761 20.2047 19.9704C21.4844 19.9648 22.7641 19.9704 24.0438 19.9704V19.9761Z" fill="black"/>
<path d="M24.0213 33.5737C24.4892 33.5737 24.9571 33.568 25.425 33.5737C26.0169 33.585 26.4397 33.9345 26.4397 34.3968C26.4397 34.8534 26.0169 35.2029 25.4194 35.2085C24.4666 35.2198 23.5139 35.2198 22.5612 35.2085C21.9974 35.2029 21.6028 34.8421 21.6028 34.3855C21.6028 33.9232 22.0087 33.5793 22.5668 33.568C23.0516 33.5624 23.5364 33.568 24.0213 33.568V33.5737Z" fill="black"/>
<path d="M11.1791 4.7831C10.4293 4.7831 9.67955 4.78874 8.92977 4.7831C8.35475 4.77746 7.98267 4.44485 7.99395 3.96567C7.99959 3.51467 8.38857 3.18206 8.92413 3.18206C10.4406 3.18206 11.9515 3.18206 13.4679 3.18206C14.0317 3.18206 14.432 3.52594 14.4376 3.98822C14.4432 4.43922 14.043 4.7831 13.4736 4.78874C12.7069 4.79438 11.9458 4.78874 11.1791 4.78874V4.7831Z" fill="black"/>
<path d="M4.80879 3.18204C5.09067 3.18204 5.37254 3.16513 5.64878 3.18204C6.09978 3.21586 6.39293 3.54284 6.39856 3.98256C6.39856 4.42792 6.11669 4.74926 5.64878 4.76617C5.08503 4.78872 4.52692 4.78308 3.96317 4.76617C3.52345 4.74926 3.19648 4.3941 3.19648 3.98256C3.19648 3.57102 3.53472 3.21023 3.95753 3.18204C4.23941 3.16513 4.52128 3.18204 4.80316 3.18204H4.80879Z" fill="black"/>
</svg>
