<svg width="48" height="49" viewBox="0 0 48 49" fill="none" xmlns="http://www.w3.org/2000/svg">
<path d="M15.0947 1.00006C15.1229 1.14092 15.2637 1.12402 15.3539 1.15782C16.5484 1.61421 17.247 2.61151 17.247 3.8849C17.247 5.15266 17.2583 6.41478 17.2414 7.68253C17.2414 7.95862 17.3034 8.12202 17.5569 8.27979C20.1882 9.94195 21.1292 12.962 19.9065 15.8187C19.7938 16.0892 19.7882 16.3033 19.9065 16.5624C21.7715 20.5742 23.6422 24.5859 25.4734 28.6146C25.6818 29.0766 25.879 28.8005 26.1101 28.7442C26.3805 28.6765 26.5101 28.5413 26.3411 28.254C26.2847 28.1638 26.2566 28.0568 26.2171 27.9497C26.0255 27.437 26.1833 26.9918 26.6172 26.8115C27.0623 26.6312 27.5018 26.8341 27.7102 27.3355C28.0427 28.1244 28.3638 28.9188 28.685 29.7077C28.7583 29.8823 28.8315 30.0514 28.8935 30.226C29.0456 30.6599 28.8935 31.0543 28.4991 31.2459C28.1103 31.4374 27.699 31.3078 27.4567 30.9191C27.3891 30.812 27.3215 30.6993 27.2989 30.581C27.2088 30.1471 26.9947 30.0795 26.6059 30.2767C26.3861 30.3894 26.3016 30.4908 26.4481 30.6937C27.2482 31.7868 26.9383 32.9306 26.6003 34.0744C26.4369 34.6209 26.4481 34.6209 27.0116 34.6434C29.8232 34.7449 32.5897 35.1055 35.2492 36.0577C36.2352 36.4127 37.1874 36.8465 37.9537 37.5903C39.1595 38.7622 39.1088 40.2272 37.8297 41.3259C37.1085 41.9457 36.2746 42.3627 35.39 42.6895C33.3222 43.4557 31.1642 43.8163 28.9724 44.0192C27.4003 44.1657 25.8283 44.2333 24.2507 44.1995C21.7208 44.1488 19.2247 43.8276 16.7681 43.2247C16.1765 43.0782 15.9004 42.6782 16.03 42.1824C16.1483 41.7203 16.5596 41.5175 17.1456 41.664C20.6277 42.5148 24.1662 42.7345 27.7271 42.5035C30.2739 42.3401 32.7982 41.9908 35.1928 41.0217C35.7732 40.785 36.3366 40.5202 36.8043 40.092C37.3564 39.5792 37.3452 39.1285 36.7592 38.6439C35.9873 38.0128 35.0632 37.6579 34.1279 37.3705C32.1727 36.7733 30.1669 36.4577 28.1272 36.3169C27.5187 36.2774 26.9158 36.2267 26.3016 36.2267C25.8002 36.2267 25.417 36.7 25.5353 37.1733C25.6875 37.8044 25.8452 38.4354 25.9917 39.0665C26.0988 39.5285 25.8734 39.9398 25.4621 40.0638C25.0226 40.1878 24.6113 39.9849 24.4704 39.5173C24.2732 38.8468 24.1098 38.165 23.9521 37.4888C23.9013 37.2691 23.8225 37.1282 23.5915 37.0719C23.3773 37.0212 23.1576 36.8916 23.0618 36.7113C22.8308 36.2831 22.4758 36.2831 22.0758 36.3225C19.7769 36.5253 17.5062 36.8691 15.3426 37.7255C14.7453 37.9621 14.1706 38.2326 13.6861 38.6721C13.117 39.1905 13.1057 39.6018 13.6917 40.1089C14.0072 40.385 14.165 40.6949 14.0241 41.0949C13.8551 41.5738 13.2635 41.7429 12.8127 41.4724C11.5224 40.6892 11.252 38.9594 12.2605 37.8326C13.179 36.8014 14.4129 36.3056 15.675 35.8887C17.6133 35.2407 19.6248 34.9083 21.6588 34.7561C22.0251 34.728 22.0645 34.6547 21.9293 34.3223C20.9094 31.8938 19.9065 29.4654 18.9148 27.0256C18.774 26.6876 18.5993 26.5467 18.2274 26.5805C17.7485 26.62 17.2583 26.6031 16.7738 26.5918C16.5315 26.5918 16.4357 26.6876 16.4357 26.9186C16.4357 27.2623 16.4357 27.606 16.4131 27.9497C16.3624 28.9245 15.5792 29.7133 14.6158 29.7753C13.5677 29.8429 12.6719 29.1893 12.4747 28.2145C12.3901 27.7976 12.407 27.375 12.4239 26.9524C12.4352 26.665 12.3282 26.5693 12.0464 26.5805C11.5619 26.5974 11.0773 26.6087 10.5927 26.5805C10.2885 26.5636 10.1589 26.6819 10.0462 26.9524C9.02073 29.4597 7.97835 31.9614 6.94725 34.4631C6.72187 35.0097 6.49649 35.5562 6.27111 36.1028C6.08517 36.5535 5.79782 36.9141 5.32452 37.0775C5.08224 37.1564 5.00336 37.3085 4.94701 37.5452C4.80052 38.1763 4.62021 38.8017 4.43991 39.4271C4.27651 39.9905 3.8821 40.2216 3.3919 40.0694C2.94678 39.9342 2.76084 39.5229 2.9017 38.9763C3.05947 38.3622 3.2285 37.748 3.39754 37.1339C3.45951 36.9141 3.49332 36.7395 3.25667 36.5704C3.00876 36.4014 2.89607 36.1084 2.81719 35.8154C2.5411 34.7674 2.27064 33.7138 1.99455 32.6657C1.81425 31.984 2.15232 31.4205 2.42841 30.8458C2.5749 30.5472 2.60308 30.3669 2.20866 30.2204C1.8875 30.1021 1.79171 30.1697 1.67339 30.4627C1.39167 31.1952 0.963447 31.4543 0.478883 31.2459C-0.0282183 31.0261 -0.11837 30.5754 0.191526 29.8372C0.540863 29.0033 0.87893 28.1694 1.2339 27.3355C1.45365 26.8228 1.8706 26.6256 2.31572 26.7946C2.74957 26.9637 2.91861 27.4595 2.7214 27.9722C2.46785 28.6202 2.47348 28.6089 3.03693 28.823C3.27921 28.9188 3.34683 28.8343 3.43698 28.6315C5.27381 24.6423 7.11628 20.6531 8.97002 16.6695C9.11652 16.3596 9.10525 16.1117 8.96439 15.7905C7.73607 13.0127 8.73901 9.82363 11.3309 8.25725C11.5675 8.11639 11.6464 7.97552 11.6464 7.70507C11.6351 6.42605 11.6464 5.14139 11.6464 3.86237C11.6464 2.5608 12.2944 1.61985 13.5227 1.13528C13.6185 1.09584 13.7086 1.03386 13.7988 0.983154C14.2382 0.983154 14.6721 0.983154 15.1116 0.983154L15.0947 1.00006ZM25.355 32.3333C25.3663 32.1417 25.2649 31.9952 25.1916 31.8431C22.6674 26.3664 20.1432 20.8954 17.602 15.4243C17.5457 15.2947 17.5513 14.9848 17.2414 15.1426C17.0273 15.2553 16.9202 15.3792 17.0386 15.6609C17.2414 16.1399 17.3823 16.6751 17.14 17.1597C16.8019 17.8471 17.0217 18.4331 17.3147 19.0416C17.4161 19.2501 17.5006 19.4698 17.5907 19.6839C19.7375 24.8789 21.8842 30.0683 24.0366 35.2576C24.0873 35.3759 24.1042 35.5619 24.2845 35.5562C24.4873 35.5506 24.5549 35.3872 24.6 35.2069C24.7465 34.6209 24.893 34.0349 25.0451 33.4489C25.1409 33.0771 25.248 32.7052 25.3494 32.3277L25.355 32.3333ZM3.5553 32.277C3.5722 32.3558 3.57784 32.4009 3.58911 32.446C3.82012 33.3475 4.0624 34.2434 4.28778 35.1449C4.33849 35.3421 4.38357 35.5168 4.61458 35.5393C4.83996 35.5562 4.82305 35.3365 4.8794 35.2125C5.44848 33.8659 6.00629 32.5136 6.5641 31.1613C8.32206 26.9186 10.08 22.6758 11.8436 18.4387C11.9563 18.1739 12.0126 17.9542 11.8661 17.6555C11.545 16.9963 11.5393 16.2976 11.8211 15.6159C11.9168 15.3848 11.9112 15.2496 11.6746 15.1313C11.3534 14.9792 11.3759 15.2891 11.3196 15.413C8.76718 20.9235 6.2204 26.4397 3.67926 31.9558C3.62855 32.0685 3.58911 32.1868 3.5553 32.277ZM18.7233 13.9819C19.1121 12.3422 18.1655 10.4152 16.5315 9.525C14.7792 8.57278 12.593 8.95029 11.19 10.4434C10.2603 11.4295 9.75321 13.2776 10.204 13.9988C11.2632 13.2437 11.8098 13.2381 12.8522 13.9988C12.9987 14.1002 13.1001 14.1396 13.2691 14.0607C14.0298 13.6945 14.8073 13.7114 15.568 14.0438C15.7652 14.1284 15.8948 14.1171 16.0751 13.9988C17.202 13.2381 17.6584 13.2381 18.7233 13.9819ZM10.8688 24.986C11.4041 24.986 11.945 25.155 12.3056 24.9184C12.5873 24.7324 12.3732 24.1915 12.4127 23.8084C12.4127 23.7633 12.4183 23.7126 12.4239 23.6675C12.5704 22.4786 13.3987 21.7574 14.5819 21.8081C15.6131 21.8476 16.3793 22.704 16.43 23.8365C16.447 24.214 16.2441 24.7437 16.5371 24.9296C16.8245 25.1156 17.3203 24.9803 17.726 24.9916C17.9514 24.9972 18.0415 24.9522 17.9345 24.6986C17.1963 22.935 16.4695 21.1658 15.737 19.3966C15.6581 19.2106 15.5792 19.1318 15.3539 19.2219C14.7679 19.4473 14.1594 19.4529 13.5734 19.2557C13.3367 19.1768 13.2522 19.2219 13.1677 19.436C12.4183 21.2616 11.6633 23.0815 10.8745 24.986H10.8688ZM15.6018 5.45128C15.6018 5.45128 15.6074 5.45128 15.6131 5.45128C15.6131 4.94982 15.6131 4.45398 15.6131 3.95252C15.6131 3.67079 15.5849 3.3947 15.4158 3.14679C15.1285 2.7242 14.6439 2.53263 14.1594 2.65659C13.5677 2.80872 13.2353 3.20877 13.224 3.89054C13.2015 4.98362 13.224 6.07107 13.2128 7.16416C13.2128 7.46842 13.348 7.50223 13.5846 7.45715C14.1425 7.3501 14.6946 7.3332 15.2524 7.45715C15.5229 7.51913 15.6131 7.40081 15.6074 7.13599C15.5961 6.57254 15.6074 6.01473 15.6074 5.45128H15.6018ZM14.4354 15.4243C13.7593 15.4187 13.2353 15.9145 13.224 16.5794C13.2128 17.216 13.7649 17.7682 14.4073 17.7739C15.0778 17.7739 15.5905 17.2724 15.6018 16.6019C15.6131 15.9258 15.1229 15.4299 14.4354 15.4187V15.4243ZM14.813 25.8142C14.813 25.1606 14.813 24.507 14.813 23.8534C14.813 23.5943 14.6946 23.4083 14.4411 23.4083C14.165 23.4083 14.0354 23.583 14.041 23.8703C14.0467 25.1494 14.0467 26.4228 14.041 27.7018C14.041 27.9722 14.1368 28.1807 14.4298 28.1751C14.7172 28.1694 14.813 27.9666 14.813 27.6905C14.8073 27.0651 14.813 26.4453 14.813 25.8199V25.8142Z" fill="black"/>
<path d="M47.6168 40.1765C47.2168 41.5513 46.4674 42.7064 45.3856 43.6417C43.8305 44.9883 42.0331 45.9067 40.123 46.6167C37.3452 47.6534 34.466 48.2563 31.5248 48.6169C28.2286 49.017 24.9268 49.1015 21.6194 48.8705C17.5288 48.5887 13.5058 47.9013 9.67996 46.3519C7.80369 45.5912 6.03446 44.6559 4.58641 43.1966C4.41174 43.0219 4.23707 42.836 4.10184 42.6275C3.8652 42.2725 3.94408 41.8499 4.25961 41.5795C4.5695 41.3146 5.03153 41.3034 5.31889 41.6189C7.89947 44.408 11.3647 45.3827 14.8693 46.2504C17.1963 46.8308 19.5797 47.1125 21.9687 47.2703C24.3521 47.428 26.7411 47.4055 29.1245 47.2196C31.953 47.0055 34.7364 46.5829 37.4635 45.794C39.8356 45.101 42.1288 44.2164 44.0727 42.6275C44.9799 41.8894 45.7462 41.0386 45.949 39.8159C46.1293 38.7566 45.7293 37.8889 45.0757 37.1113C44.0953 35.9394 42.8219 35.1562 41.4696 34.4857C40.0554 33.787 38.5679 33.3024 37.0635 32.8517C36.5507 32.6996 36.3197 32.277 36.4662 31.8037C36.5902 31.398 37.0353 31.167 37.486 31.2966C39.8694 31.9783 42.2021 32.8066 44.2643 34.2265C45.718 35.2238 46.9463 36.4183 47.459 38.1875C47.5041 38.3453 47.4365 38.5425 47.5999 38.6608V40.1596L47.6168 40.1765Z" fill="black"/>
<path d="M31.6825 30.1584C32.4601 30.288 33.3785 30.4176 34.2913 30.5979C34.8378 30.705 35.0576 31.0937 34.9505 31.5896C34.8604 32.0009 34.404 32.2544 33.9251 32.1755C33.0574 32.0234 32.184 31.8995 31.3163 31.7361C30.8036 31.6403 30.5726 31.2853 30.6458 30.7951C30.7022 30.4063 31.074 30.1359 31.6769 30.1584H31.6825Z" fill="black"/>
</svg>
