<svg width="48" height="48" viewBox="0 0 48 48" fill="none" xmlns="http://www.w3.org/2000/svg">
<path d="M3.18942 0.0112639C12.7182 0.0112639 22.2471 0.0112639 31.7759 0.0112639C31.7928 0.0338039 31.8041 0.0788869 31.821 0.0845219C33.1283 0.535324 33.6185 1.48763 33.6185 2.82313C33.6073 14.837 33.6129 26.8452 33.6073 38.8591C33.6073 40.4144 32.9705 41.2427 31.4772 41.5977C31.2687 41.6484 31.1955 41.6992 31.2011 41.9189C31.2124 43.3108 31.218 44.697 31.2011 46.0888C31.2011 46.3706 31.3025 46.427 31.5561 46.4157C31.99 46.3988 32.4296 46.3988 32.8691 46.4157C33.2635 46.4382 33.5678 46.7538 33.5847 47.1482C33.6016 47.5596 33.3875 47.8301 33.01 47.9597C32.8691 48.0104 32.7 47.9879 32.5479 47.9879C23.0529 47.9879 13.5522 47.9879 4.05722 47.9879C1.74122 47.9879 0.0169051 46.2579 0.00563502 43.9306C-5.12227e-09 42.5275 0.00563502 41.1188 0.00563502 39.7156C0.00563502 27.8426 0.00563502 15.9753 0 4.1023C0 2.57521 0.648027 1.39747 1.93281 0.58603C2.32163 0.343724 2.7668 0.191591 3.18379 0L3.18942 0.0112639ZM31.9731 20.8383C31.9731 14.837 31.9731 8.84134 31.9731 2.84004C31.9731 1.82574 31.7477 1.60597 30.739 1.60597C21.9146 1.60597 13.0845 1.60597 4.26008 1.60597C2.57521 1.60597 1.58908 2.5921 1.58908 4.2826C1.58908 14.9215 1.58908 25.5605 1.58908 36.1994C1.58908 37.5912 1.58908 38.9774 1.58908 40.3693C1.58908 40.5947 1.57781 40.8145 1.899 40.606C2.72172 40.0819 3.64022 39.9974 4.58691 39.9974C13.3494 40.0087 22.1118 40.003 30.8799 40.0087C31.7252 40.0087 31.9675 39.772 31.9675 38.9324C31.9675 32.9029 31.9675 26.8734 31.9675 20.8439L31.9731 20.8383ZM16.5444 41.6203C15.4174 41.6203 14.2961 41.6203 13.169 41.6203C10.0923 41.6203 7.0156 41.6146 3.93888 41.6259C2.46814 41.6315 1.36368 43.0121 1.66233 44.4096C1.94408 45.7226 2.83442 46.41 4.24881 46.41C12.3576 46.41 20.4608 46.41 28.5696 46.41C29.5895 46.41 29.5613 46.41 29.612 45.3845C29.6346 44.8999 29.4881 44.7984 29.0204 44.7984C21.1144 44.8153 13.2141 44.8097 5.30819 44.8097C5.10533 44.8097 4.89683 44.8266 4.69961 44.7984C4.28825 44.7421 4.0065 44.3983 4.01777 43.9813C4.02904 43.5531 4.31079 43.2544 4.74469 43.2206C4.97572 43.2037 5.2124 43.2094 5.44907 43.2094C13.1634 43.2094 20.8834 43.2094 28.5977 43.2094C29.2627 43.2094 29.597 42.8844 29.6008 42.2345C29.6008 41.825 29.3885 41.6184 28.964 41.6146C24.8223 41.6146 20.6862 41.6146 16.5444 41.6146V41.6203Z" fill="black"/>
<path d="M47.9935 11.6363C47.6948 12.2224 47.3116 12.7183 46.5904 12.7915C46.4326 12.8084 46.3875 12.9098 46.3931 13.0564C46.3988 13.1522 46.3931 13.2423 46.3931 13.3381C46.3931 20.6636 46.3819 27.9892 46.4044 35.3147C46.4044 36.4755 46.0212 37.5462 45.7676 38.645C45.1816 41.1413 44.5561 43.6207 43.9532 46.1114C43.694 47.1877 42.7754 47.9766 41.733 47.9991C40.4933 48.0273 39.586 47.3793 39.2817 46.1903C38.459 42.9276 37.6532 39.6537 36.853 36.3853C36.7854 36.1036 36.7742 35.7993 36.7742 35.5007C36.7742 28.192 36.7742 20.8834 36.7742 13.5748C36.7742 13.1353 36.7741 12.814 36.205 12.6675C35.495 12.4872 35.1907 11.8617 35.1738 11.1517C35.1456 10.1205 35.1569 9.0893 35.1738 8.05809C35.1851 7.55658 35.3485 7.0945 35.7711 6.79021C35.9627 6.64934 36.0021 6.49155 35.9965 6.27742C35.9909 5.02645 35.9965 3.78111 35.9909 2.53014C35.9796 1.38623 36.5093 0.608587 37.5518 0.16342C37.6307 0.12961 37.6983 0.0619963 37.7715 0.0112811C40.3017 0.0112811 42.8318 0.0112811 45.3619 0.0112811C45.3901 0.0450912 45.4126 0.0901789 45.4464 0.107084C46.7143 0.540981 47.2158 1.47638 47.2102 2.75553C47.2046 3.93889 47.2102 5.12225 47.2102 6.29997C47.2102 6.44648 47.1595 6.61553 47.3285 6.72259C47.6554 6.93673 47.7906 7.2861 47.9878 7.60166V11.6307L47.9935 11.6363ZM44.6744 34.013C44.7195 33.9848 44.759 33.9623 44.8041 33.9341C44.8041 33.782 44.8041 33.6242 44.8041 33.472C44.8041 27.0087 44.8041 20.5397 44.8041 14.0763C44.8041 13.7945 44.7871 13.5128 44.8041 13.231C44.821 12.9267 44.7083 12.814 44.404 12.8253C43.9363 12.8422 43.4686 12.831 43.0008 12.8253C42.3979 12.8253 42.3923 12.8197 42.3923 13.4339C42.3923 17.8856 42.3923 22.3372 42.3923 26.7889C42.3923 27.4313 42.3923 28.0681 42.3923 28.7104C42.3923 29.026 42.3077 29.2965 42.026 29.4712C41.7668 29.6346 41.4963 29.6797 41.2314 29.5163C40.9103 29.3247 40.7807 29.026 40.7807 28.6485C40.7807 25.9155 40.7807 23.1825 40.7807 20.4495C40.7807 18.0603 40.775 15.671 40.7919 13.2818C40.7919 12.9042 40.6905 12.7915 40.3242 12.8141C39.8565 12.8422 39.3832 12.8535 38.9211 12.8141C38.4928 12.7746 38.4083 12.938 38.4139 13.3381C38.4308 19.9593 38.4308 26.5804 38.4308 33.2016C38.4308 33.4382 38.4308 33.6749 38.4308 34.013C38.6619 33.7989 38.8084 33.6636 38.9493 33.5284C39.0958 33.3875 39.231 33.2354 39.3775 33.0945C39.8565 32.655 40.3467 32.7057 40.7243 33.241C40.9666 33.5847 41.2033 33.9341 41.4287 34.2891C41.5583 34.4976 41.6484 34.5089 41.778 34.2891C41.9809 33.9566 42.2063 33.6355 42.4261 33.3143C42.8825 32.6493 43.339 32.6099 43.9194 33.1847C44.1786 33.4439 44.4265 33.7256 44.6744 33.9961V34.013ZM41.5752 6.39575C42.7754 6.39575 43.9813 6.39012 45.1816 6.40139C45.4803 6.40139 45.5817 6.32814 45.576 6.01258C45.5535 4.8743 45.5761 3.73039 45.5648 2.59211C45.5648 1.87083 45.3056 1.61163 44.573 1.61163C42.5895 1.61163 40.606 1.61163 38.6224 1.61163C37.8899 1.61163 37.5912 1.90466 37.5856 2.62594C37.58 3.75294 37.5969 4.87431 37.5743 6.00131C37.5687 6.35068 37.6983 6.40703 38.0082 6.40139C39.1972 6.38449 40.3806 6.39575 41.5695 6.39575H41.5752ZM39.8452 34.8301C39.4282 35.2696 39.0451 35.681 38.6562 36.0811C38.5379 36.205 38.4928 36.3346 38.5379 36.5037C39.0789 38.6788 39.6198 40.8539 40.1495 43.0347C40.2115 43.2826 40.3242 43.3671 40.5722 43.3108C41.2653 43.1643 41.964 43.1699 42.6627 43.2995C42.8656 43.339 42.9727 43.3052 43.029 43.0741C43.5587 40.9046 44.094 38.7352 44.6294 36.5657C44.6744 36.391 44.7139 36.2219 44.5336 36.0585C44.1842 35.743 43.8574 35.4049 43.5362 35.0667C43.3784 34.8977 43.2826 34.8977 43.153 35.1062C42.9051 35.5063 42.6402 35.8895 42.3754 36.2727C41.8964 36.9658 41.2765 36.9545 40.8032 36.2501C40.4989 35.7993 40.2002 35.3485 39.8452 34.8188V34.8301ZM41.609 11.1855C43.0741 11.1855 44.5448 11.1799 46.0099 11.1912C46.3142 11.1912 46.4157 11.101 46.41 10.7967C46.3931 9.98528 46.3988 9.17383 46.41 8.36239C46.41 8.12008 46.3368 8.01864 46.0945 8.01864C45.7507 8.01864 45.407 8.01301 45.0633 8.01864C42.4712 8.01864 39.8847 8.02992 37.2926 8.02428C36.9488 8.02428 36.8023 8.1088 36.8192 8.49198C36.853 9.24144 36.853 9.99091 36.8192 10.7404C36.8023 11.1348 36.9545 11.2024 37.2982 11.1968C38.7351 11.1799 40.1664 11.1912 41.6034 11.1912L41.609 11.1855ZM41.6315 44.8153C40.5834 44.8153 40.544 44.8773 40.8483 45.8296C40.9722 46.2185 41.2427 46.3988 41.6034 46.3988C41.9922 46.3988 42.2627 46.1734 42.3697 45.7733C42.612 44.8435 42.6008 44.821 41.6315 44.821V44.8153Z" fill="black"/>
<path d="M18.3871 4.01213C21.492 4.01213 24.6025 4.01213 27.7074 4.01213C28.9922 4.01213 29.612 4.61508 29.612 5.89423C29.612 11.625 29.612 17.3559 29.612 23.0867C29.612 24.1235 28.9302 24.8335 27.8877 24.8335C21.5765 24.8392 15.2709 24.8392 8.95967 24.8335C7.87775 24.8335 7.21282 24.1461 7.21282 23.0698C7.21282 17.3052 7.20718 11.5462 7.21282 5.78152C7.21282 4.63761 7.82703 4.01777 8.97658 4.01777C12.1153 4.0065 15.254 4.01777 18.3927 4.01777L18.3871 4.01213ZM8.80753 22.495C8.98785 22.2583 9.08928 22.1456 9.1738 22.0217C11.4391 18.6181 13.7044 15.2202 15.9696 11.8166C16.4993 11.0221 17.1079 11.0277 17.6489 11.8392C18.5505 13.1859 19.4577 14.5327 20.3481 15.8908C20.534 16.1725 20.6467 16.1725 20.8552 15.9246C21.3849 15.2878 21.9315 14.668 22.4725 14.0425C22.974 13.4621 23.4022 13.4508 23.9094 14.0199C25.0477 15.3047 26.1803 16.6008 27.3186 17.8799C27.4764 18.0546 27.6229 18.404 27.8595 18.3082C28.0455 18.2293 27.9891 17.863 27.9891 17.6151C27.9891 13.8058 27.9891 9.99652 28.0117 6.18724C28.0117 5.73644 27.8821 5.61812 27.4313 5.61812C21.3736 5.63502 15.316 5.62939 9.2527 5.61812C8.85824 5.61812 8.80753 5.75898 8.80753 6.09708C8.8188 9.76548 8.80753 13.4339 8.80753 17.1079C8.80753 18.8548 8.80753 20.6016 8.80753 22.495ZM16.8205 13.479C16.6966 13.6424 16.6008 13.7607 16.5162 13.8903C14.544 16.8487 12.5774 19.8071 10.6107 22.7655C10.5375 22.8726 10.3628 22.9796 10.4473 23.1205C10.5206 23.2501 10.7009 23.1825 10.8361 23.1825C14.7976 23.1825 18.7646 23.1825 22.726 23.1825C22.8838 23.1825 23.0585 23.2276 23.2332 23.098C21.0975 19.8916 18.9731 16.7078 16.8262 13.479H16.8205ZM26.5635 23.1825C26.9241 23.1825 27.2791 23.1712 27.6398 23.1825C27.8708 23.1881 27.961 23.1149 27.9835 22.8669C28.068 21.8019 28.068 20.7763 27.0763 20.055C26.9805 19.9818 26.9129 19.8691 26.8283 19.7733C25.7295 18.5167 24.625 17.2713 23.5431 15.9978C23.2614 15.6654 23.1092 15.6935 22.8613 16.0204C22.5513 16.4317 22.2132 16.8262 21.8526 17.1868C21.5596 17.4798 21.5483 17.7165 21.785 18.0602C22.6866 19.3676 23.6051 20.6749 24.4278 22.0329C24.9406 22.8782 25.459 23.5149 26.5635 23.1825Z" fill="black"/>
<path d="M4.78975 20.8721C4.78975 26.0901 4.78975 31.3025 4.78975 36.5206C4.78975 36.7234 4.80102 36.9376 4.72777 37.1179C4.58125 37.4673 4.28823 37.6419 3.89942 37.5912C3.5106 37.5405 3.29647 37.2869 3.20631 36.9263C3.1725 36.7967 3.1894 36.6445 3.1894 36.5037C3.1894 26.1521 3.1894 15.795 3.1894 5.44343C3.1894 5.22366 3.1894 5.00389 3.19504 4.78976C3.22321 4.33896 3.54441 4.02902 3.97267 4.02339C4.43474 4.01775 4.75594 4.31642 4.77848 4.80667C4.79538 5.17858 4.78411 5.55612 4.78411 5.92803C4.78411 10.9094 4.78411 15.8907 4.78411 20.8721H4.78975Z" fill="black"/>
<path d="M18.3984 27.2003C21.7738 27.2003 25.1435 27.2003 28.5189 27.2003C28.7217 27.2003 28.9246 27.1777 29.1162 27.2792C29.4543 27.4538 29.6572 27.7243 29.5895 28.1075C29.5219 28.4851 29.3021 28.7612 28.8739 28.795C28.733 28.8062 28.5921 28.8062 28.4513 28.8062C21.7061 28.8062 14.9554 28.8062 8.21025 28.8062C7.55096 28.8062 7.21849 28.5414 7.21285 28.0174C7.20722 27.4877 7.56223 27.2003 8.23279 27.2003C11.6194 27.2003 15.0117 27.2003 18.3984 27.2003Z" fill="black"/>
<path d="M12.8478 32.0126C11.3207 32.0126 9.78802 32.0126 8.26092 32.0126C8.02425 32.0126 7.78758 32.0182 7.58472 31.883C7.25789 31.6688 7.14519 31.3476 7.24662 30.987C7.34805 30.6207 7.6298 30.4178 8.00735 30.4009C8.39616 30.3784 8.78498 30.3953 9.17943 30.3953C11.8617 30.3953 14.5496 30.3953 17.2319 30.3953C17.3897 30.3953 17.5474 30.384 17.6996 30.4122C18.1448 30.4911 18.4209 30.8348 18.3927 31.2687C18.3702 31.6745 18.0771 31.9844 17.6263 31.9957C16.798 32.0182 15.9696 32.0069 15.1469 32.0126C14.3806 32.0126 13.6198 32.0126 12.8535 32.0126H12.8478Z" fill="black"/>
<path d="M25.583 32.0126C24.5856 32.0126 23.5882 32.0126 22.5908 32.0126C21.9879 32.0126 21.5822 31.6688 21.5878 31.2068C21.5934 30.7221 21.9935 30.3953 22.5965 30.3953C24.6082 30.3953 26.6199 30.3953 28.6316 30.3953C29.0373 30.3953 29.3529 30.5362 29.5388 30.925C29.6853 31.2237 29.5839 31.4772 29.4148 31.7083C29.2232 31.9787 28.9302 32.0182 28.6203 32.0182C27.606 32.0182 26.5917 32.0182 25.5774 32.0182L25.583 32.0126Z" fill="black"/>
<path d="M12.8028 7.22409C14.1326 7.17338 15.2596 8.4469 15.1977 9.68097C15.1357 10.9714 14.1045 12.0195 12.769 12.0139C11.4447 12.0082 10.4023 10.9319 10.4079 9.5739C10.4079 8.26094 11.4673 7.22409 12.8028 7.22409ZM12.8197 10.4135C13.2423 10.4022 13.6142 10.0078 13.5917 9.57954C13.5748 9.15128 13.186 8.80191 12.7521 8.82445C12.3463 8.84699 11.9913 9.21889 11.997 9.61898C12.0026 10.036 12.4027 10.4248 12.814 10.4079L12.8197 10.4135Z" fill="black"/>
</svg>
