<svg width="49" height="48" viewBox="0 0 49 48" fill="none" xmlns="http://www.w3.org/2000/svg">
<path d="M28.8755 0H30.4706C30.5664 0.152184 30.7468 0.124002 30.8877 0.169093C32.1954 0.546736 33.2325 1.29638 33.9934 2.42367C34.123 2.62095 34.2414 2.82386 34.3992 3.08877C34.7318 1.76421 35.4758 0.794739 36.4734 0H37.3189C40.4584 1.9333 40.898 4.86425 40.3513 8.17285C40.5204 8.16158 40.5937 7.99812 40.6951 7.89667C41.146 7.43448 41.6759 7.07938 42.2564 6.80319C43.4175 6.25646 43.953 6.41428 44.6237 7.50775C44.7308 7.68248 44.8267 7.86285 44.8999 8.04885C45.7736 10.2809 45.4354 12.4115 44.3306 14.4688C44.139 14.8295 43.8966 15.162 43.6261 15.5791C44.1221 15.3424 44.5448 15.1339 45.0014 15.055C46.6698 14.7731 47.628 14.666 48.0112 16.4077V17.907C47.9887 17.9465 47.9436 17.9803 47.938 18.0254C47.5942 20.015 46.5458 21.5707 44.9901 22.8107C44.6857 23.0531 44.3476 23.256 44.0206 23.4758C45.0352 23.442 45.9878 23.6054 46.8896 24.0338C47.5603 24.3495 47.8422 24.8793 47.7012 25.5951C47.6449 25.8826 47.5716 26.17 47.4589 26.4462C46.5345 28.7403 44.7365 30.0197 42.4593 30.7412C41.9802 30.8934 41.4786 30.9328 40.9431 30.9779C41.0615 31.1808 41.2024 31.1639 41.3151 31.2034C42.2846 31.5528 43.1414 32.077 43.8121 32.8774C44.1672 33.2945 44.263 33.7623 43.9812 34.2583C43.8346 34.5176 43.6881 34.7769 43.4965 35.0023C42.1775 36.558 40.419 37.1611 38.4575 37.3133C37.6571 37.3753 36.8624 37.2513 35.9718 37.0258C36.7158 37.7473 37.2344 38.4744 37.5275 39.348C37.7304 39.9624 37.6233 40.4641 37.1667 40.8192C36.5411 41.2983 35.8534 41.6759 35.07 41.8112C32.1559 42.2959 29.6815 41.5012 27.7144 39.2579C27.5678 39.0888 27.4495 39.0211 27.2071 39.0493C25.0878 39.2804 22.9685 39.2579 20.8492 39.055C20.5787 39.0268 20.4265 39.0775 20.2574 39.2804C19.3443 40.3964 18.1944 41.1743 16.8079 41.5801C14.852 42.155 12.9413 42.2226 11.1489 41.0503C10.3936 40.5543 10.2132 40.0188 10.5345 39.1733C10.8389 38.3786 11.3236 37.7135 12.0338 37.0258C10.6641 37.3866 9.42976 37.4035 8.19537 37.1273C6.62844 36.7722 5.25315 36.0902 4.30059 34.7431C3.61294 33.7736 3.69185 33.2889 4.55986 32.4772C5.25878 31.8234 6.09861 31.4063 6.99481 31.0794C6.9159 30.9441 6.80881 30.9723 6.72426 30.9667C5.39406 30.8314 4.18786 30.3636 3.09439 29.597C1.69655 28.6163 0.653805 27.3819 0.304345 25.6515C0.152161 24.8962 0.400165 24.3945 1.09345 24.0507C1.488 23.8535 1.89946 23.7351 2.32219 23.6224C2.84638 23.4814 3.38748 23.5773 4.01313 23.4984C2.76747 22.7713 1.80928 21.8751 1.09908 20.7309C0.247981 19.3274 -0.208572 17.8394 0.0901602 16.1822C0.242344 15.3368 0.71017 14.9366 1.55 14.9084C2.51383 14.8746 3.41567 15.117 4.32313 15.5453C4.29495 15.4495 4.29495 15.4044 4.27241 15.3706C3.04366 13.7529 2.50256 11.9155 2.64347 9.8976C2.71675 8.84359 3.03802 7.85157 3.72003 7.01738C4.1484 6.49319 4.58241 6.36919 5.21369 6.58901C5.97461 6.85392 6.66226 7.2372 7.23154 7.82339C7.37245 7.96994 7.49082 8.13903 7.62046 8.29685C7.65427 8.26303 7.68809 8.22922 7.72755 8.20103C7.47954 7.16393 7.34427 6.13246 7.50773 5.06153C7.81773 3.02114 8.57865 1.2682 10.4443 0.163457C10.5063 0.124002 10.557 0.0563645 10.6078 0C10.9178 0 11.2334 0 11.5434 0C12.5298 0.794739 13.2682 1.76421 13.6515 3.0775C14.1024 2.18131 14.6604 1.53311 15.3706 1.00892C16.0188 0.529826 16.7797 0.27055 17.535 0H19.1301C19.2372 0.157821 19.4232 0.140911 19.581 0.191639C20.4828 0.496008 20.7985 0.946923 20.821 1.88821C20.8379 2.79004 20.5167 3.56787 20.0037 4.27806C18.6623 6.12118 16.6839 6.83701 14.4744 6.29028C14.232 6.22828 14.0855 6.35228 13.9276 6.46501C9.98776 9.39032 7.68246 13.3133 6.96099 18.1494C6.61717 20.4659 6.77499 22.7825 7.41191 25.0484C8.99575 30.6566 12.5073 34.5514 17.8957 36.7609C18.3861 36.9638 18.3973 36.9469 18.3973 36.4227C18.3973 30.0028 18.3973 23.5829 18.3917 17.163C18.3917 16.8079 18.4593 16.4866 18.6284 16.1766C19.8459 13.9277 21.0578 11.6787 22.2752 9.42414C22.3654 9.26068 22.4556 9.09723 22.5514 8.93377C23.2954 7.65993 24.7778 7.6543 25.4936 8.95068C26.8295 11.3856 28.1371 13.8318 29.4561 16.2781C29.5857 16.5148 29.6364 16.7628 29.6364 17.039C29.6308 18.5552 29.6364 20.0714 29.6364 21.5876C29.6364 26.5533 29.6364 31.5247 29.6364 36.4904C29.6364 36.8511 29.7153 36.9469 30.0535 36.7947C30.4199 36.6256 30.8088 36.5016 31.1695 36.3213C37.0653 33.396 40.3851 28.6388 41.1686 22.1231C41.4053 20.1616 41.2137 18.2001 40.7177 16.2837C39.6693 12.2029 37.4542 8.90559 34.0498 6.41428C33.8919 6.29591 33.751 6.21137 33.5425 6.29591C32.9225 6.53828 32.2968 6.58337 31.6205 6.48755C29.5575 6.20009 27.6129 4.5148 27.2578 2.4744C27.0324 1.20056 27.3255 0.586191 28.526 0.186003C28.6331 0.129638 28.7515 0.0563645 28.8755 0ZM20.0037 28.1822C20.0037 30.8201 20.0037 33.4636 20.0037 36.1015C20.0037 36.4904 19.8966 36.9695 20.0826 37.24C20.2799 37.5275 20.8154 37.3697 21.1874 37.4655C21.4861 37.5444 21.5932 37.488 21.5932 37.1386C21.5763 35.6224 21.5876 34.1062 21.5876 32.5899C21.5876 31.3725 21.5763 30.155 21.5876 28.9319C21.5932 28.3006 21.9652 27.9512 22.5063 28.0132C22.9741 28.0695 23.2221 28.419 23.2221 29.0503C23.2221 31.5359 23.2221 34.016 23.2221 36.5016C23.2221 37.5951 23.2221 37.5838 24.31 37.5951C24.6651 37.5951 24.8004 37.5218 24.7891 37.1273C24.7609 36.0338 24.7891 34.9403 24.7891 33.8469C24.7891 33.5651 24.806 33.2776 25.0145 33.0578C25.2513 32.8041 25.5556 32.7309 25.8713 32.8492C26.2771 32.9958 26.418 33.3396 26.418 33.7454C26.418 34.7769 26.418 35.8084 26.418 36.8398C26.418 37.2644 26.6247 37.4561 27.038 37.4147C27.2522 37.3922 27.472 37.3415 27.6862 37.3415C27.9793 37.3415 28.0019 37.1837 28.0019 36.9526C28.0019 31.1245 28.0019 25.2964 28.0019 19.4683C28.0019 19.1301 27.9849 18.8877 27.5622 19.1865C27.3649 19.3274 27.1226 19.4288 26.8858 19.4965C26.5251 19.5923 26.418 19.7839 26.418 20.1616C26.4349 22.8783 26.4236 25.6008 26.418 28.3175C26.418 28.9883 26.4293 29.659 26.4067 30.3354C26.3898 30.8483 26.046 31.2034 25.6064 31.209C25.1554 31.2147 24.8454 30.8821 24.806 30.3466C24.7947 30.2057 24.806 30.0648 24.806 29.9239C24.806 26.9253 24.7947 23.9267 24.7891 20.9225C24.7891 20.015 24.7891 20.015 23.8591 19.9981C23.2221 19.9868 23.2221 19.9868 23.2278 20.6519C23.2278 22.1963 23.2278 23.7464 23.2278 25.2907C23.2278 25.6402 23.194 25.9897 22.8952 26.2208C22.6472 26.4124 22.3654 26.4688 22.061 26.3166C21.689 26.1249 21.5932 25.798 21.5932 25.4147C21.5932 23.8084 21.5594 22.1963 21.5932 20.5899C21.6045 19.9699 21.5594 19.4908 20.821 19.3781C20.6463 19.3499 20.4828 19.2259 20.325 19.1245C20.1221 18.9836 20.015 18.9836 20.0206 19.271C20.0206 19.4119 20.0094 19.5528 20.0094 19.6938C20.0094 22.5233 20.0094 25.3471 20.0094 28.1766L20.0037 28.1822ZM24.1803 18.3974C24.4283 18.4312 24.8567 18.3579 25.2851 18.2846C26.2095 18.1268 27.0493 17.7943 27.6919 17.0672C27.8328 16.9093 27.8779 16.7741 27.7595 16.5712C27.41 15.9624 27.0775 15.3481 26.7506 14.728C26.6491 14.5364 26.5702 14.4969 26.356 14.604C24.7947 15.3931 23.2278 15.4382 21.6665 14.604C21.4467 14.4857 21.3339 14.5195 21.2268 14.728C20.9507 15.2522 20.7083 15.799 20.3757 16.2837C20.0545 16.7515 20.2179 17.0503 20.5787 17.3434C20.6632 17.411 20.7477 17.4786 20.8379 17.5406C21.7792 18.217 22.8614 18.3636 24.1747 18.3917L24.1803 18.3974ZM38.4856 8.38704C38.8069 7.56975 38.9309 6.81447 38.9366 6.031C38.9478 4.48098 38.4856 3.13387 37.364 2.02349C37.0427 1.70784 36.8793 1.77548 36.6538 2.09676C36.124 2.85204 35.8196 3.69751 35.7351 4.60498C35.7012 4.98826 35.5322 5.47863 35.8647 5.77172C36.7778 6.57774 37.6515 7.41193 38.4856 8.39267V8.38704ZM12.2818 5.11226C12.2818 3.9737 11.9267 2.91968 11.2954 2.03476C11.0925 1.7473 10.9629 1.72475 10.6923 1.97276C8.95066 3.53405 8.78156 6.13809 9.36775 7.97557C9.48612 8.33631 9.61576 8.28558 9.81867 8.04321C10.4218 7.32738 11.0869 6.66228 11.814 6.07609C12.1634 5.79427 12.372 5.50117 12.2874 5.1179L12.2818 5.11226ZM43.8008 10.6811C43.7501 9.92015 43.6148 9.20996 43.3217 8.52795C43.2034 8.25176 43.085 8.17285 42.8032 8.34194C41.721 8.99577 40.9657 9.90888 40.5542 11.1094C40.4866 11.3067 40.5373 11.442 40.6162 11.5885C41.1179 12.5242 41.5462 13.4937 41.8562 14.5026C41.969 14.8746 42.0817 14.8295 42.2846 14.5871C43.2484 13.4542 43.6881 12.1184 43.8008 10.6867V10.6811ZM4.20477 10.8445C4.30622 12.1071 4.75714 13.4091 5.67024 14.5308C5.86752 14.7731 6.00843 14.9422 6.15498 14.4631C6.45935 13.4655 6.88208 12.5129 7.37245 11.5885C7.45136 11.442 7.51336 11.3067 7.44573 11.1094C7.03427 9.90324 6.26771 9.00141 5.19115 8.34194C4.93751 8.18412 4.80787 8.25176 4.69514 8.5054C4.39077 9.19868 4.22168 9.92015 4.20477 10.8445ZM35.8534 35.2673C37.0484 35.7407 38.1926 35.7915 39.3593 35.5885C40.4866 35.3913 41.4279 34.8558 42.2113 34.0216C42.4086 33.8131 42.4086 33.6665 42.1775 33.4974C41.2081 32.7647 40.1089 32.4378 38.9027 32.4603C38.7449 32.4603 38.5984 32.4885 38.4856 32.6238C37.7078 33.5651 36.8454 34.4162 35.8534 35.2673ZM12.1071 35.2447C11.938 35.0925 11.7802 34.946 11.6223 34.8051C10.9403 34.1907 10.2696 33.5538 9.7003 32.8267C9.46921 32.5336 9.2043 32.4321 8.85484 32.4434C7.767 32.4885 6.78062 32.8098 5.88443 33.4354C5.59133 33.6383 5.5857 33.7849 5.82243 34.0498C7.24281 35.6336 10.1118 36.2029 12.1071 35.2391V35.2447ZM42.7637 22.2132C43.2766 22.0723 43.6712 21.7961 44.0488 21.4974C45.5256 20.3138 46.433 18.8426 46.3429 16.8755C46.3316 16.605 46.2921 16.5148 45.9765 16.5599C45.0578 16.6839 44.2405 17.039 43.5021 17.5857C42.9215 18.0141 42.5552 18.5157 42.8144 19.2879C42.8595 19.4176 42.837 19.5641 42.837 19.705C42.8426 20.5279 42.8821 21.3565 42.7637 22.2132ZM5.21933 22.2132C5.13478 21.0183 5.11787 19.8685 5.25315 18.7243C5.28697 18.4594 5.19678 18.2565 5.00514 18.0648C4.20477 17.2475 3.24094 16.7797 2.11928 16.5768C1.674 16.4979 1.674 16.6783 1.66273 16.9883C1.58382 19.147 3.08875 21.3903 5.22497 22.2132H5.21933ZM7.33863 29.3659C6.74681 28.1992 6.27898 27.0493 5.92952 25.8544C5.87879 25.6853 5.73788 25.6628 5.61952 25.6064C4.53168 25.0991 3.40439 25.0258 2.25456 25.3302C2.02346 25.3922 1.92764 25.4767 2.0291 25.7529C2.4631 26.9704 3.24094 27.8891 4.36259 28.5148C5.26442 29.0164 6.21698 29.3659 7.34427 29.3659H7.33863ZM40.6782 29.349C41.2306 29.411 41.6871 29.2926 42.1268 29.1574C43.9135 28.6106 45.3114 27.6186 45.9709 25.7755C46.061 25.5162 46.0216 25.4147 45.7736 25.3415C44.6012 25.0146 43.4683 25.116 42.3579 25.612C42.2113 25.6797 42.0986 25.7586 42.0479 25.9333C41.7153 27.1 41.2362 28.2104 40.6782 29.349ZM29.3771 38.6942C29.8901 39.224 30.4368 39.5453 31.0174 39.8046C32.5392 40.4866 34.0723 40.5993 35.6223 39.9117C35.8591 39.8046 35.9774 39.7088 35.8196 39.427C35.2391 38.418 34.4218 37.6853 33.3283 37.2682C33.1479 37.2006 32.9845 37.1837 32.7985 37.2851C31.7388 37.8713 30.6284 38.356 29.3771 38.6886V38.6942ZM18.6059 38.6942C17.9746 38.5195 17.3941 38.3448 16.8473 38.0911C16.295 37.8375 15.7482 37.5726 15.2071 37.2964C15.0211 37.2006 14.8577 37.2062 14.6773 37.2738C13.6007 37.6853 12.7947 38.4124 12.2085 39.3931C12.0563 39.6468 12.0789 39.7821 12.372 39.923C14.5702 40.9657 17.2701 40.0582 18.6059 38.6942ZM32.2517 4.88116C32.2799 4.88116 32.449 4.84171 32.6237 4.83607C33.0239 4.81916 33.069 4.62189 33.0183 4.26116C32.8097 2.8295 30.9948 1.4542 29.4448 1.67403C28.8135 1.76421 28.7571 1.81494 28.9262 2.43495C29.3039 3.79333 30.7186 4.88117 32.2517 4.8868V4.88116ZM18.1212 1.65712C16.5824 1.73039 15.162 2.96477 14.9817 4.36825C14.9478 4.62189 14.9647 4.72334 15.2635 4.81353C16.7064 5.2419 18.5495 3.93988 18.9554 2.81822C19.3217 1.80366 19.1921 1.60639 18.1212 1.65712ZM23.9943 9.59887C23.5603 10.4049 23.1883 11.0982 22.8107 11.7971C22.636 12.124 22.4669 12.4622 22.2809 12.7835C22.1456 13.0146 22.2978 13.0878 22.4443 13.1837C23.2785 13.7248 24.7947 13.7078 25.6064 13.1611C25.7416 13.0709 25.8149 12.9977 25.7247 12.8286C25.1611 11.7915 24.6087 10.7487 23.9943 9.59887Z" fill="black"/>
<path d="M11.6223 19.9812C11.9943 19.9812 12.372 19.9699 12.744 19.9812C13.2682 20.0038 13.5895 20.3138 13.5951 20.7816C13.5951 21.255 13.302 21.5932 12.7722 21.6101C11.9943 21.6383 11.2109 21.6383 10.433 21.6101C9.91449 21.5932 9.54812 21.1761 9.58194 20.7421C9.61576 20.3138 9.9934 19.9925 10.5007 19.9812C10.6867 19.9812 10.8727 19.9812 11.0643 19.9812C11.2503 19.9812 11.4363 19.9812 11.628 19.9812H11.6223Z" fill="black"/>
<path d="M36.3833 21.6158C36.0282 21.6158 35.6674 21.6271 35.3123 21.6158C34.7543 21.5932 34.4161 21.2776 34.4161 20.8098C34.4161 20.3138 34.7656 19.9868 35.3405 19.9812C36.0563 19.9756 36.7722 19.9756 37.488 19.9812C38.0291 19.9868 38.4124 20.3194 38.4293 20.759C38.4518 21.2212 38.0742 21.5876 37.5105 21.6101C37.1385 21.6271 36.7665 21.6101 36.3889 21.6101L36.3833 21.6158Z" fill="black"/>
<path d="M33.6721 10.3992C34.2921 10.4387 34.6641 11.1433 34.2696 11.628C33.6947 12.3269 33.0408 12.9582 32.3532 13.55C32.0432 13.8149 31.6092 13.7417 31.3386 13.4542C31.0624 13.1611 31.0117 12.682 31.2879 12.3889C31.8797 11.7633 32.4997 11.1714 33.1085 10.5683C33.2607 10.4162 33.4636 10.3823 33.6721 10.3992Z" fill="black"/>
<path d="M13.6007 11.2053C13.5725 10.8614 13.7191 10.6134 14.0066 10.4725C14.3053 10.326 14.6378 10.3203 14.8858 10.5514C15.5058 11.1376 16.1146 11.7464 16.7008 12.372C16.9826 12.6764 16.9375 13.1386 16.6613 13.4317C16.3851 13.7248 15.9229 13.798 15.6073 13.5106C14.9647 12.9187 14.3673 12.2875 13.7529 11.6674C13.6289 11.5434 13.5782 11.3744 13.6064 11.2053H13.6007Z" fill="black"/>
<path d="M16.03 27.9455C16.3795 27.9117 16.5993 28.0639 16.7515 28.3232C16.915 28.5993 16.9431 28.9037 16.729 29.1517C16.1428 29.8394 15.5058 30.4819 14.8182 31.0681C14.5138 31.3274 14.0516 31.2597 13.8036 30.9667C13.5275 30.651 13.4598 30.2508 13.7416 29.9408C14.3278 29.2983 14.9647 28.7008 15.5904 28.0921C15.7144 27.9737 15.8779 27.9004 16.03 27.9399V27.9455Z" fill="black"/>
<path d="M33.5143 31.2259C33.3565 31.2428 33.1705 31.0907 33.007 30.9272C32.4659 30.3917 31.9248 29.8563 31.395 29.3039C31.0343 28.9319 31.0455 28.4753 31.3894 28.1428C31.6994 27.8441 32.1672 27.8441 32.5223 28.1822C33.0859 28.7177 33.6327 29.2701 34.1738 29.8281C34.4218 30.0817 34.495 30.3974 34.3541 30.7299C34.2189 31.0399 33.9652 31.2034 33.5199 31.2203L33.5143 31.2259Z" fill="black"/>
<path d="M34.4049 17.3377C33.9709 17.3039 33.6947 17.1348 33.5763 16.7628C33.4523 16.3739 33.5538 16.0244 33.9201 15.8441C34.4725 15.5679 35.0474 15.3142 35.6336 15.1226C35.9943 15.0042 36.3325 15.1564 36.5298 15.5284C36.7327 15.9004 36.6707 16.2724 36.3494 16.4866C35.7463 16.8981 35.0361 17.0954 34.3992 17.3377H34.4049Z" fill="black"/>
<path d="M34.3654 24.2649C35.0361 24.4847 35.7632 24.7158 36.3889 25.1498C36.6989 25.364 36.7496 25.7698 36.5129 26.1137C36.2931 26.4293 35.9943 26.6097 35.5942 26.4519C35.0587 26.2433 34.5232 26.0348 34.0047 25.798C33.6158 25.6233 33.4748 25.2851 33.5707 24.868C33.6609 24.4904 33.9314 24.31 34.371 24.2593L34.3654 24.2649Z" fill="black"/>
<path d="M14.4349 16.5092C14.4349 17.0615 13.8995 17.4504 13.3696 17.2588C12.8736 17.0784 12.3889 16.8812 11.9042 16.667C11.4363 16.4584 11.256 16.0244 11.4307 15.6073C11.628 15.1395 12.0338 14.9817 12.5467 15.1846C13.0089 15.365 13.4655 15.5566 13.922 15.7539C14.2489 15.8948 14.4406 16.1428 14.4349 16.5092Z" fill="black"/>
<path d="M14.4293 25.2287C14.418 25.4317 14.2715 25.6853 13.9784 25.8149C13.4655 26.0404 12.9525 26.2602 12.4283 26.4575C12.0169 26.6097 11.6223 26.4124 11.442 26.0009C11.2729 25.6177 11.3969 25.1949 11.7914 25.0089C12.3213 24.7553 12.868 24.5129 13.426 24.3269C13.9389 24.1522 14.4462 24.5749 14.4349 25.2287H14.4293Z" fill="black"/>
<path d="M23.9887 48C22.4105 48 20.8323 48 19.2541 48C18.3241 48 17.6421 47.3687 17.6139 46.4443C17.5857 45.6045 17.5913 44.759 17.6195 43.9136C17.6477 43.0681 18.3128 42.403 19.1639 42.3974C22.3823 42.3805 25.6007 42.3805 28.8191 42.3974C29.6759 42.3974 30.4255 43.1639 30.3973 43.9868C30.3692 44.8154 30.4086 45.644 30.3861 46.4725C30.3635 47.3462 29.6928 47.9944 28.8135 48C27.2015 48.0113 25.5951 48 23.9831 48H23.9887ZM24.0112 46.4105C25.4598 46.4105 26.914 46.3992 28.3626 46.4218C28.7177 46.4218 28.8191 46.326 28.8022 45.9765C28.774 45.4974 28.7628 45.007 28.8022 44.5279C28.8473 44.0658 28.65 43.9812 28.2499 43.9925C27.472 44.015 26.6886 44.0038 25.9107 44.0038C23.8027 44.0038 21.7003 44.015 19.5923 44.0038C19.2766 44.0038 19.1921 44.0996 19.209 44.3983C19.2315 44.945 19.2372 45.4918 19.209 46.0329C19.1977 46.3485 19.3048 46.4218 19.6035 46.4162C21.069 46.3992 22.5345 46.4105 24 46.4105H24.0112Z" fill="black"/>
</svg>
