<svg width="48" height="49" viewBox="0 0 48 49" fill="none" xmlns="http://www.w3.org/2000/svg">
<path d="M23.9586 47.9925C17.8034 47.9925 11.6482 47.9774 5.49302 48.0075C4.2063 48.0075 2.99483 47.7216 1.97899 47.0067C0.918012 46.2543 0.338611 45.0955 0.11287 43.7937C0.0075247 43.2143 0 42.6349 0 42.0555C0 34.2975 0 26.5396 0 18.7892C0 17.7507 0.428907 16.9456 1.28672 16.3888C1.58771 16.1931 1.67801 15.9674 1.67801 15.6363C1.66296 12.5813 1.67801 9.51873 1.65543 6.46371C1.65543 5.95203 1.68553 5.43283 1.7683 4.9362C1.89622 4.13105 2.54335 3.73225 3.21304 3.41621C3.5968 3.23562 4.02571 3.19799 4.46214 3.19799C8.37498 3.19799 12.2953 3.19799 16.2082 3.21304C16.6145 3.21304 16.7575 3.12275 16.7575 2.68631C16.7725 1.00831 18.0894 0 19.5943 0C26.7578 0.0225741 33.9213 0.0225741 41.0848 0C41.9276 0 42.665 0.255839 43.2369 0.775043C43.6884 1.18138 43.9141 1.82098 43.9141 2.48315C43.9291 6.66688 43.9442 10.8506 43.9517 15.0419C43.9517 15.9824 43.9442 15.9749 44.8923 15.99C45.562 15.99 46.1941 16.0351 46.7961 16.4339C47.6087 16.9682 47.9097 17.7282 47.9097 18.6311C47.9248 22.5289 47.9097 26.4192 47.9097 30.317C47.9097 34.3803 47.9022 38.4512 47.9172 42.5145C47.9172 43.2369 47.7442 43.9291 47.684 44.644C47.6689 44.8321 47.5109 45.0052 47.4131 45.1858C46.3671 47.0669 44.7192 47.985 42.6198 47.9925C36.3969 48.0226 30.174 48.0075 23.9511 48.0075L23.9586 47.9925ZM21.8893 46.3596C24.7487 46.3596 27.6006 46.3596 30.4599 46.3596C33.3494 46.3596 36.2389 46.3596 39.1284 46.3596C39.2337 46.3596 39.3767 46.4424 39.452 46.3069C39.5046 46.2166 39.4294 46.1489 39.3767 46.0812C39.008 45.5695 38.7898 44.9826 38.5791 44.4032C38.2856 43.583 38.3308 42.7252 38.3232 41.8749C38.3232 36.5248 38.3232 31.1823 38.3232 25.8323C38.3232 23.477 38.3232 21.1143 38.3082 18.7591C38.3082 17.8937 38.0373 17.6529 37.2096 17.6454C36.5775 17.6454 35.9454 17.6304 35.3134 17.6454C34.9748 17.6529 34.734 17.51 34.5985 17.2466C34.2223 16.5242 33.9665 15.7567 33.7482 14.9666C33.3795 13.6046 33.0108 12.7092 31.2726 12.7393C29.0303 12.7769 26.7954 12.7468 24.5531 12.7544C23.2964 12.7544 22.7998 13.1005 22.401 14.2969C22.1527 15.0494 21.9345 15.8094 21.6862 16.5694C21.4679 17.2315 21.0917 17.668 20.1812 17.668C14.2969 17.6454 8.42013 17.6529 2.53582 17.6604C1.82098 17.6604 1.63286 17.8034 1.61781 18.5107C1.59523 19.8276 1.61781 21.1369 1.61781 22.4537C1.61781 29.3764 1.61781 36.2916 1.63286 43.2143C1.63286 43.7786 1.66296 44.3581 1.97899 44.8396C2.63364 45.8479 3.58928 46.3747 4.80075 46.3747C10.4969 46.3747 16.1856 46.3747 21.8818 46.3747L21.8893 46.3596ZM42.2737 22.0097C42.2737 15.5535 42.2737 9.08983 42.2737 2.63364C42.2737 1.78335 42.1834 1.69306 41.3106 1.65543C41.2428 1.65543 41.1751 1.65543 41.1074 1.65543C33.8762 1.65543 26.6374 1.65543 19.4062 1.65543C19.2406 1.65543 19.06 1.66296 18.902 1.71563C18.4806 1.83602 18.285 2.30256 18.3678 2.94968C18.4355 3.43878 18.8193 3.20552 19.0525 3.20552C21.957 3.22057 24.8691 3.20552 27.7736 3.20552C29.256 3.20552 30.3697 4.3267 30.3697 5.79401C30.3697 7.47202 30.3772 9.1425 30.3621 10.8205C30.3621 11.1742 30.4599 11.3171 30.8211 11.2946C31.2275 11.272 31.6413 11.2946 32.0477 11.3021C33.4021 11.3548 34.4179 12.2502 34.8092 13.3563C35.0651 14.0712 35.351 14.786 35.5241 15.5234C35.6144 15.9072 35.8326 16.005 36.1787 16.005C36.6076 16.005 37.0365 16.005 37.4579 16.005C38.4587 15.9749 39.4896 16.7876 39.7981 17.7357C39.9486 18.1947 39.9787 18.6763 39.9787 19.1503C39.9636 26.7503 40.0389 34.3577 39.9411 41.9577C39.9411 42.2662 40.0088 42.3941 40.3399 42.3791C40.7011 42.3565 41.0547 42.3791 41.4159 42.3791C42.048 42.364 42.2662 42.1383 42.2662 41.5137C42.2662 35.0199 42.2662 28.5261 42.2662 22.0323L42.2737 22.0097ZM8.29973 8.01379C7.81815 8.01379 7.3441 8.03637 6.87004 8.01379C6.46371 7.99122 6.34331 8.12667 6.35084 8.533C6.37341 10.8356 6.37341 13.1456 6.35084 15.4482C6.35084 15.8771 6.46371 15.9975 6.89262 15.99C9.0823 15.9674 11.272 15.9599 13.4541 15.99C13.9658 15.9975 14.2894 15.8018 14.485 15.403C14.8312 14.7032 15.3955 14.1615 15.8094 13.5068C16.4189 12.5587 17.1111 11.6633 17.7583 10.7377C18.0442 10.3314 18.6086 10.3013 18.9095 10.7001C19.5943 11.6181 20.2866 12.5437 20.9939 13.4918C21.1143 13.2585 21.1895 13.0252 21.3325 12.8446C21.784 12.2427 22.1828 11.6256 23.0331 11.43C23.7329 11.272 24.4176 11.287 25.1099 11.2494C25.441 11.2344 25.5614 11.1516 25.5538 10.813C25.5388 10.0605 25.5313 9.30804 25.5689 8.5631C25.5915 8.10409 25.4335 7.99875 24.9895 7.99875C21.7915 8.02132 18.5935 8.02132 15.403 8.02884C14.9365 8.02884 14.47 7.94607 13.9959 8.05894C14.7935 9.98526 14.169 11.4601 12.7468 12.3254C11.9342 12.8221 11.0237 12.8145 10.0906 12.5286C9.32309 12.2953 8.34488 11.2946 8.18686 10.512C8.0138 9.66923 8.18686 8.86409 8.29221 8.00627L8.29973 8.01379ZM46.4123 30.8362C46.4123 30.8362 46.3972 30.8362 46.3822 30.8362C46.3822 27.435 46.3822 24.0339 46.3822 20.6402C46.3822 19.9028 46.4424 19.1729 46.3822 18.4355C46.337 17.9238 46.0812 17.6604 45.5695 17.6454C45.2309 17.6379 44.8848 17.6755 44.5462 17.6379C44.0495 17.5852 43.9216 17.7733 43.9216 18.2624C43.9442 24.7562 43.9442 31.25 43.9442 37.7363C43.9442 39.0155 43.9291 40.3022 43.9141 41.5814C43.9066 42.7177 42.8381 44.0495 41.5739 43.9066C41.1826 43.8614 40.7913 43.9066 40.3925 43.9066C40.242 43.9066 40.069 43.9291 40.1367 44.1097C40.2195 44.3505 40.1593 44.6365 40.3399 44.8396C40.8591 45.4416 41.3707 45.9984 42.2135 46.2317C43.2519 46.5252 44.8923 46.0361 45.4642 45.3438C46.1489 44.5236 46.4273 43.583 46.4273 42.522C46.4123 38.6242 46.4273 34.734 46.4273 30.8362H46.4123ZM15.9448 4.83838C12.0847 4.83838 8.21696 4.83838 4.3568 4.83838C3.40116 4.83838 3.19047 5.04154 3.19047 6.01223C3.19047 9.15755 3.19799 12.2953 3.18294 15.4407C3.18294 15.8846 3.33344 15.99 3.73977 15.9824C4.85343 15.9674 4.86095 15.9824 4.876 14.8688C4.9061 12.4458 4.92115 10.0154 4.94372 7.59241C4.94372 7.44192 4.94372 7.30647 5.06412 7.17103C5.5156 6.65183 6.04985 6.35084 6.74965 6.35084C12.9575 6.35084 19.1654 6.35084 25.3657 6.35084C26.4192 6.35084 27.1942 7.13341 27.2018 8.18686C27.2018 9.05973 27.2093 9.93259 27.2018 10.7979C27.2018 11.0688 27.277 11.2569 27.5629 11.2193C27.9768 11.1666 28.4433 11.4526 28.7895 11.0237C28.8196 10.9936 28.8045 10.9258 28.8045 10.8732C28.8045 9.40586 28.8421 7.93855 28.7895 6.47123C28.7293 4.83838 28.6691 4.8158 27.0287 4.8158C23.3341 4.8158 19.647 4.8158 15.9523 4.8158L15.9448 4.83838ZM18.1721 15.9975C18.6688 15.9975 19.1654 15.9975 19.6545 15.9975C19.9179 15.9975 20.1963 16.0125 20.3392 15.7642C20.4897 15.4933 20.3392 15.23 20.1812 15.0118C19.6771 14.2743 19.1503 13.552 18.6537 12.807C18.4656 12.5211 18.3452 12.5136 18.1496 12.7995C17.5325 13.7025 16.9005 14.5979 16.2834 15.5009C16.2082 15.6062 16.0426 15.7116 16.1179 15.847C16.1931 15.99 16.3737 15.9975 16.5242 15.9975C17.0735 15.9975 17.6153 15.9975 18.1646 15.9975H18.1721ZM11.1666 8.01379C10.3314 7.99122 9.54131 8.75121 9.55636 9.60151C9.57141 10.3314 10.2336 11.2419 11.1817 11.2795C11.9567 11.3096 12.8145 10.4668 12.8296 9.65418C12.8446 8.84904 12.0169 8.04389 11.1666 8.02132V8.01379Z" fill="black"/>
<path d="M19.9404 43.8915C15.1547 43.8915 10.369 43.8915 5.58332 43.8915C4.74808 43.8915 4.04076 43.1917 4.01066 42.349C3.98809 41.7545 3.98809 41.1525 3.98809 40.5581C3.98809 34.3051 3.99561 28.052 4.00314 21.8066C4.00314 21.0917 4.30412 20.5198 4.92115 20.2113C5.33501 20.0006 5.84668 20.0307 6.32074 20.0307C9.45101 20.0307 12.5738 20.0307 15.704 20.0307C21.7388 20.0307 27.7736 20.0307 33.8084 20.0307C34.1847 20.0307 34.5609 20.0608 34.9221 20.1361C35.4789 20.2565 35.9153 20.9186 35.9153 21.5959C35.9153 28.5336 35.9153 35.4639 35.9153 42.4016C35.9153 43.2519 35.2833 43.899 34.4556 43.9066C29.6172 43.9066 24.7788 43.9066 19.9404 43.9066V43.8915ZM20.0232 42.3565C24.6434 42.3565 29.256 42.349 33.8762 42.364C34.3502 42.364 34.4631 42.206 34.448 41.7846C34.4104 40.9644 34.3878 40.1442 34.3878 39.324C34.3878 33.6203 34.3803 27.9091 34.3954 22.2054C34.3954 21.7163 34.2298 21.5808 33.7783 21.5959C32.77 21.6109 31.7617 21.5959 30.7534 21.5959C22.5289 21.5959 14.3044 21.5959 6.07995 21.5658C5.60589 21.5658 5.65104 21.8066 5.65104 22.1075C5.65104 28.6841 5.65104 35.2607 5.64352 41.8373C5.64352 42.2662 5.76391 42.3715 6.17777 42.364C10.7979 42.349 15.4106 42.3565 20.0307 42.3565H20.0232Z" fill="black"/>
<path d="M36.3744 9.57893C35.2155 9.57893 34.0492 9.6015 32.8904 9.57141C32.2282 9.55636 31.9047 9.18765 31.995 8.66092C32.0326 8.43518 32.1154 8.26211 32.3787 8.18686C32.6797 8.09657 32.9732 8.02884 33.2817 8.02884C35.366 8.02884 37.4429 8.02884 39.5272 8.02132C39.6777 8.02132 39.8357 8.02884 39.9862 8.05894C40.5506 8.17181 40.7688 8.42013 40.7311 8.90171C40.686 9.39834 40.3098 9.54883 39.9034 9.56388C38.9628 9.6015 38.0298 9.58646 37.0892 9.59398C36.8484 9.59398 36.6076 9.59398 36.3744 9.59398C36.3744 9.59398 36.3744 9.58645 36.3744 9.57893Z" fill="black"/>
<path d="M36.3518 6.36589C35.2231 6.36589 34.0944 6.35836 32.9657 6.36589C32.6496 6.36589 32.3938 6.26054 32.1831 6.04985C31.8595 5.71876 31.9799 5.19956 32.4088 5.01144C32.6797 4.89105 32.9581 4.83838 33.2516 4.83838C35.3058 4.83838 37.3526 4.83838 39.4068 4.83838C39.625 4.83838 39.8508 4.86847 40.0615 4.9061C40.4753 4.98887 40.7763 5.21461 40.7161 5.66609C40.6559 6.11005 40.3098 6.33579 39.8884 6.34331C38.707 6.36589 37.5332 6.34331 36.3518 6.35084V6.36589Z" fill="black"/>
<path d="M38.6844 12.7844C38.2931 12.7619 37.9019 12.7393 37.5106 12.7243C37.0516 12.7167 36.8785 12.4308 36.8559 12.032C36.8334 11.6633 36.9763 11.3623 37.3977 11.2946C38.2781 11.1516 39.166 11.1666 40.0464 11.2795C40.4678 11.3322 40.7763 11.573 40.7387 12.0621C40.701 12.5361 40.3549 12.6866 39.9636 12.7243C39.5422 12.7619 39.1133 12.7318 38.6844 12.7318C38.6844 12.7468 38.6844 12.7619 38.6844 12.7769V12.7844Z" fill="black"/>
<path d="M23.0406 27.9843C20.3242 27.9843 17.6078 27.9843 14.8914 27.9843C14.5452 27.9843 14.2141 27.9617 13.9056 27.7812C13.6347 27.6231 13.5294 27.3899 13.567 27.0964C13.6046 26.818 13.725 26.5998 14.0561 26.5245C14.4775 26.4267 14.8989 26.3891 15.3203 26.3891C20.6327 26.3891 25.9451 26.4041 31.2576 26.4192C31.5285 26.4192 31.8069 26.4418 32.0778 26.4719C32.4615 26.517 32.7324 26.6449 32.755 27.1265C32.7775 27.6231 32.5067 27.7962 32.1079 27.8865C31.7241 27.9768 31.3328 27.9918 30.934 27.9918C28.3004 27.9918 25.6742 27.9918 23.0406 27.9918V27.9843Z" fill="black"/>
<path d="M23.1459 32.8227C25.8774 32.8227 28.6164 32.8227 31.3479 32.8227C31.6413 32.8227 31.9273 32.8227 32.2057 32.913C32.5593 33.0183 32.7399 33.2065 32.7324 33.6053C32.7324 34.0041 32.5217 34.147 32.1982 34.2298C31.8821 34.3126 31.5585 34.3427 31.235 34.3427C25.7495 34.3427 20.264 34.3427 14.7785 34.3427C13.9884 34.3427 13.552 34.0643 13.552 33.5752C13.552 33.0861 13.9809 32.8152 14.786 32.8152C17.5702 32.8152 20.3618 32.8152 23.1459 32.8152V32.8227Z" fill="black"/>
<path d="M23.1535 40.7311C20.3844 40.7311 17.6153 40.7311 14.8462 40.7311C14.5904 40.7311 14.3345 40.7387 14.0862 40.6634C13.7627 40.5731 13.6122 40.3474 13.5595 40.0389C13.5068 39.7228 13.7025 39.5197 13.9433 39.3767C14.1991 39.2187 14.485 39.1811 14.7785 39.1811C20.3016 39.1811 25.8247 39.1811 31.3479 39.1961C31.6187 39.1961 31.8972 39.2262 32.1605 39.2939C32.5067 39.3842 32.7475 39.5799 32.7399 40.0088C32.7399 40.4151 32.5368 40.5882 32.1756 40.6634C31.7993 40.7462 31.4306 40.7236 31.0544 40.7236C28.4208 40.7236 25.7871 40.7236 23.1535 40.7236V40.7311Z" fill="black"/>
<path d="M23.0858 37.5407C20.4371 37.5407 17.7884 37.5407 15.1397 37.5407C14.8161 37.5407 14.5001 37.5482 14.1765 37.4805C13.8153 37.4052 13.6724 37.187 13.6272 36.8559C13.5821 36.5098 13.7551 36.3142 14.0411 36.1712C14.2894 36.0508 14.5528 35.9981 14.8312 35.9981C20.4521 35.9981 26.0731 35.9981 31.7015 35.9981C32.0251 35.9981 32.296 36.0884 32.5443 36.2916C32.8076 36.5023 32.7625 36.7882 32.7174 37.0441C32.6797 37.2698 32.5217 37.3977 32.2583 37.4429C31.8821 37.5031 31.5134 37.5407 31.1372 37.5407C28.4509 37.5407 25.7721 37.5407 23.0858 37.5407Z" fill="black"/>
<path d="M23.1986 29.6473C26.058 29.6473 28.9099 29.6473 31.7692 29.6473C32.4615 29.6473 32.7249 29.8805 32.7475 30.4148C32.755 30.7007 32.6496 30.8512 32.4013 30.9641C32.0627 31.1146 31.7166 31.1673 31.3554 31.1673C25.8849 31.1673 20.4145 31.1673 14.9365 31.1673C14.6807 31.1673 14.4248 31.1597 14.1765 31.0694C13.8379 30.9566 13.6272 30.7534 13.6122 30.3772C13.5971 30.0009 13.8379 29.8504 14.1389 29.7225C14.3571 29.6247 14.5753 29.6398 14.7935 29.6398C17.6003 29.6398 20.3994 29.6398 23.2061 29.6398L23.1986 29.6473Z" fill="black"/>
<path d="M23.2438 23.2438C25.8398 23.2438 28.4433 23.2438 31.0393 23.2438C31.4005 23.2438 31.7617 23.2513 32.1154 23.304C32.454 23.3491 32.7098 23.5071 32.7249 23.9285C32.7399 24.3499 32.5292 24.5832 32.1756 24.6735C31.8671 24.7487 31.5285 24.7487 31.2049 24.7487C25.8172 24.7562 20.4295 24.7638 15.0494 24.7638C14.6807 24.7638 14.2969 24.7863 13.9583 24.5681C13.6799 24.3875 13.5896 24.1467 13.6272 23.8307C13.6648 23.4996 13.8981 23.3717 14.169 23.304C14.3797 23.2513 14.6054 23.2362 14.8312 23.2362C17.6379 23.2362 20.4371 23.2362 23.2438 23.2362C23.2438 23.2362 23.2438 23.2362 23.2438 23.2438Z" fill="black"/>
<path d="M9.19517 27.9918C8.72112 27.9542 8.23954 28.0596 7.77301 27.894C7.41182 27.7661 7.15598 27.5705 7.18608 27.1265C7.21618 26.6675 7.50964 26.517 7.88588 26.4719C8.73617 26.3665 9.58646 26.359 10.4367 26.4493C10.8958 26.4944 11.2118 26.6826 11.2344 27.1942C11.2494 27.6833 10.8807 27.8113 10.5195 27.9241C10.0906 28.0596 9.63913 27.9542 9.19517 27.9918Z" fill="black"/>
<path d="M9.1124 40.7161C8.72112 40.7161 8.32231 40.7387 7.93855 40.7161C7.55479 40.686 7.24628 40.5355 7.1936 40.0991C7.14093 39.6401 7.39677 39.3692 7.79558 39.2864C8.72112 39.1058 9.6617 39.1284 10.5872 39.2714C10.9635 39.3316 11.2344 39.6024 11.2268 40.0163C11.2268 40.4753 10.8958 40.671 10.4894 40.701C10.0304 40.7311 9.57141 40.7086 9.10487 40.7086C9.10487 40.7086 9.10487 40.7161 9.10487 40.7236L9.1124 40.7161Z" fill="black"/>
<path d="M9.31557 32.8227C9.76705 32.8829 10.3314 32.6948 10.8732 32.9807C11.1516 33.1312 11.2193 33.3494 11.2193 33.6053C11.2193 33.8762 11.1064 34.0944 10.8205 34.1922C10.6098 34.2674 10.4066 34.3427 10.1809 34.3427C9.51873 34.3427 8.84904 34.3653 8.18686 34.3427C7.79558 34.3276 7.3742 34.275 7.21618 33.8385C7.02806 33.3269 7.4043 32.8754 8.03637 32.8302C8.42765 32.8076 8.81894 32.8302 9.31557 32.8302V32.8227Z" fill="black"/>
<path d="M9.24032 31.1823C8.78131 31.1447 8.32231 31.2275 7.8633 31.0995C7.51717 30.9942 7.23875 30.8362 7.20865 30.4298C7.17855 30.0009 7.46449 29.7752 7.81063 29.7301C8.76626 29.6097 9.73695 29.5344 10.6926 29.7601C11.0086 29.8354 11.2193 30.0235 11.2043 30.4148C11.1892 30.7986 10.9484 30.9566 10.6625 31.0694C10.2035 31.2576 9.71437 31.1447 9.24032 31.1823Z" fill="black"/>
<path d="M9.02963 37.5407C8.66092 37.5031 8.18686 37.5858 7.71281 37.4654C7.35915 37.3751 7.26133 37.1268 7.21618 36.8409C7.17856 36.5625 7.30647 36.3443 7.57736 36.2389C7.76548 36.1637 7.9536 36.0357 8.14172 36.0282C8.85656 36.0056 9.57893 35.9906 10.2938 36.0282C10.8581 36.0583 11.2344 36.4421 11.1892 36.871C11.1591 37.1569 11.0462 37.3751 10.7152 37.4504C10.4443 37.5106 10.1809 37.5557 9.91002 37.5482C9.65418 37.5482 9.39834 37.5482 9.03715 37.5482L9.02963 37.5407Z" fill="black"/>
<path d="M9.2328 23.2362C9.6918 23.2362 10.1508 23.2061 10.6098 23.2964C10.9936 23.3717 11.2043 23.5899 11.2043 23.9962C11.2043 24.4101 10.9409 24.6584 10.5948 24.696C9.68428 24.8089 8.75874 24.8315 7.84825 24.696C7.46449 24.6358 7.20865 24.3499 7.20865 23.9511C7.20865 23.5673 7.47954 23.3566 7.85578 23.2889C8.31478 23.2061 8.77379 23.2438 9.2328 23.2362Z" fill="black"/>
</svg>
