<svg width="72" height="72" viewBox="0 0 72 72" fill="none" xmlns="http://www.w3.org/2000/svg">
<path d="M12 27.2939H15.1448V23.2115C15.1448 22.1958 15.4052 21.4307 15.9261 20.9164C16.447 20.402 17.1958 20.1448 18.1724 20.1448H22.2157V17H18.1334C16.0889 17 14.5556 17.5046 13.5333 18.5138C12.5111 19.523 12 21.0368 12 23.0552V27.2939ZM12 39.9903H15.1448V29.9699H12V39.9903ZM18.1334 52.9601H22.2157V49.8154H18.1724C17.1958 49.8154 16.447 49.5582 15.9261 49.0437C15.4052 48.5294 15.1448 47.7644 15.1448 46.7487V42.6664H12V46.9049C12 48.9234 12.5111 50.4372 13.5333 51.4463C14.5556 52.4555 16.0889 52.9601 18.1334 52.9601ZM24.8917 52.9601H33.7011V49.8154H24.8917V52.9601ZM58.0586 27.2939V23.0552C58.0586 21.0368 57.5475 19.523 56.5253 18.5138C55.5031 17.5046 53.9697 17 51.9253 17H47.8429V20.1448H51.8863C52.8629 20.1448 53.6117 20.402 54.1327 20.9164C54.6535 21.4307 54.9139 22.1958 54.9139 23.2115V27.2939H58.0586ZM24.8917 20.1448H33.7011V17H24.8917V20.1448ZM36.3575 20.1448H45.1669V17H36.3575V20.1448Z" fill="#0D0C0E"/>
<path d="M43.0362 55.38H56.8656C58.2112 55.38 59.2204 55.0393 59.8932 54.3578C60.5661 53.6763 60.9025 52.6584 60.9025 51.3041V39.48C60.9025 38.9158 60.8721 38.4426 60.8113 38.0606C60.7506 37.6787 60.6312 37.3292 60.4533 37.0124C60.2753 36.6955 60.0126 36.3591 59.6653 36.0032L52.4902 28.6978C52.1603 28.3592 51.8391 28.1009 51.5266 27.923C51.2141 27.745 50.8733 27.6234 50.5044 27.5583C50.1354 27.4932 49.7078 27.4607 49.2217 27.4607H43.0362C41.6906 27.4607 40.6814 27.8036 40.0086 28.4894C39.3358 29.1752 38.9993 30.1953 38.9993 31.5496V51.3041C38.9993 52.6671 39.3358 53.6872 40.0086 54.3643C40.6814 55.0414 41.6906 55.38 43.0362 55.38ZM43.1273 53.2834C42.4589 53.2834 41.9532 53.1098 41.6103 52.7626C41.2674 52.4153 41.0959 51.9162 41.0959 51.2651V31.5887C41.0959 30.9462 41.2674 30.4471 41.6103 30.0911C41.9532 29.7352 42.4632 29.5572 43.1404 29.5572H48.9352V37.123C48.9352 37.9391 49.1392 38.5511 49.5472 38.9592C49.9553 39.3672 50.5673 39.5712 51.3833 39.5712H58.8059V51.2651C58.8059 51.9162 58.6345 52.4153 58.2916 52.7626C57.9486 53.1098 57.4386 53.2834 56.7614 53.2834H43.1273ZM51.6177 37.6049C51.3573 37.6049 51.1728 37.5484 51.0643 37.4356C50.9558 37.3227 50.9015 37.1361 50.9015 36.8756V29.9609L58.4023 37.6049H51.6177Z" fill="#0D0C0E"/>
<path d="M49.1124 52.256C49.2882 52.256 49.4395 52.186 49.5665 52.046C49.6934 51.9061 49.8025 51.7189 49.8936 51.4845L53.0918 43.1302C53.1341 43.0163 53.1675 42.9105 53.1919 42.8128C53.2163 42.7152 53.2285 42.624 53.2285 42.5394C53.2285 42.3799 53.1829 42.2546 53.0918 42.1634C53.0006 42.0723 52.8753 42.0267 52.7158 42.0267C52.6345 42.0267 52.5441 42.0389 52.4448 42.0633C52.3456 42.0878 52.239 42.1211 52.125 42.1634L43.7268 45.3811C43.5217 45.4593 43.3492 45.5618 43.2092 45.6887C43.0692 45.8157 42.9993 45.9671 42.9993 46.1428C42.9993 46.3675 43.0757 46.5294 43.2287 46.6287C43.3817 46.728 43.5754 46.8134 43.8098 46.885L47.3351 47.9201L48.3605 51.4015C48.4321 51.6456 48.5183 51.8491 48.6192 52.0118C48.7201 52.1746 48.8845 52.256 49.1124 52.256ZM47.5548 47.1779L44.1857 46.1477C44.1467 46.138 44.1198 46.1266 44.1052 46.1135C44.0905 46.1005 44.0832 46.0859 44.0832 46.0696C44.0832 46.0533 44.0897 46.0379 44.1027 46.0232C44.1158 46.0086 44.1402 45.9947 44.176 45.9817L50.7774 43.4818C50.9727 43.4069 51.1639 43.3247 51.3511 43.2352C51.5383 43.1457 51.723 43.0586 51.9053 42.974C51.7425 43.1042 51.57 43.2441 51.3877 43.3939C51.2054 43.5436 51.0476 43.6852 50.9141 43.8187L47.5548 47.1779ZM49.1905 51.1818C49.171 51.1818 49.1555 51.1728 49.1441 51.1549C49.1327 51.137 49.1205 51.1085 49.1075 51.0695L48.0772 47.7004L51.4366 44.3411C51.57 44.2077 51.7124 44.0482 51.8638 43.8626C52.0152 43.6771 52.1559 43.5013 52.2861 43.3353C52.2015 43.5208 52.1136 43.708 52.0225 43.8968C51.9313 44.0856 51.8483 44.2793 51.7734 44.4778L49.2735 51.0793C49.2605 51.1151 49.2475 51.1411 49.2345 51.1574C49.2214 51.1737 49.2068 51.1818 49.1905 51.1818Z" fill="#0D0C0E"/>
</svg>
