<svg width="50" height="50" viewBox="0 0 50 50" fill="none" xmlns="http://www.w3.org/2000/svg">
<path d="M3.00528 32.6732V31.5321C3.32225 30.9827 3.72903 30.5547 4.41052 30.4861C4.67994 30.4596 5.04974 30.6234 5.19766 30.4015C5.32444 30.2061 5.23464 29.8627 5.23464 29.5879C5.23464 22.6777 5.23464 15.7728 5.23464 8.86265C5.23464 7.46793 6.22781 6.49057 7.60663 6.49057C10.8714 6.49057 14.1362 6.47472 17.3957 6.50113C17.9979 6.50113 18.4787 6.45359 18.7058 5.81434C18.7375 5.72453 18.8274 5.65057 18.8907 5.57132C19.7202 4.60453 20.7926 4.19774 22.0393 4.23472C22.4197 4.24528 22.6521 4.1766 22.7789 3.76981C22.9163 3.3366 23.2227 2.98793 23.5766 2.68679C23.9623 2.35925 24.4377 2.20604 24.8868 2H26.1177C26.1863 2.14792 26.3448 2.11623 26.461 2.15321C27.2482 2.42264 27.8821 2.91396 28.1727 3.68C28.3629 4.17132 28.627 4.25057 29.0813 4.24528C30.5764 4.22944 31.7439 4.85283 32.5046 6.14189C32.6684 6.41661 32.8321 6.49057 33.1174 6.49057C36.4878 6.48529 39.853 6.52227 43.2235 6.46944C44.5072 6.4483 45.7856 7.29359 45.7751 9.04227C45.7434 15.4559 45.7645 21.8694 45.7645 28.283C45.7645 28.9117 45.7803 29.5404 45.7698 30.1691C45.7698 30.391 45.8332 30.4966 46.0656 30.4808C46.2241 30.4702 46.3879 30.4702 46.5464 30.4808C47.3124 30.5283 47.9357 31.1094 47.9886 31.8227C48.1629 33.994 46.3192 36.2076 44.1585 36.44C42.7269 36.5932 41.2899 36.477 39.8583 36.5087C39.3247 36.5193 39.3247 36.5087 39.4991 36.9895C40.4553 39.6363 41.422 42.2778 42.3729 44.9246C42.7638 46.0181 42.0665 46.9796 40.9096 46.9849C39.8107 46.9849 38.7119 46.9849 37.6131 46.9849C36.546 46.9849 36.1339 46.6785 35.7694 45.6695C34.7181 42.7321 33.651 39.7947 32.605 36.8574C32.5099 36.5932 32.3725 36.5034 32.0925 36.5087C31.0835 36.5245 30.0692 36.5087 29.0602 36.5087C28.6763 36.5087 28.4844 36.6936 28.4844 37.0634C28.4844 39.8159 28.4844 42.5683 28.4844 45.3208C28.4844 46.388 27.898 46.9796 26.8414 46.9796C25.9645 46.9796 25.0822 46.9321 24.2053 46.9955C23.2491 47.0642 22.4619 46.3404 22.4831 45.2574C22.5306 42.4891 22.4936 39.7208 22.5042 36.9525C22.5042 36.6196 22.4302 36.4929 22.0657 36.4981C21.0144 36.5245 19.9579 36.514 18.9013 36.4981C18.6266 36.4981 18.4681 36.5615 18.3889 36.8415C18.2832 37.2061 18.1406 37.56 18.0138 37.914C17.047 40.5872 16.0856 43.2604 15.1135 45.9336C14.8547 46.6468 14.3634 46.9796 13.6132 46.9796C12.3982 46.9796 11.1831 46.9849 9.96805 46.9796C9.2443 46.9796 8.67376 46.4672 8.52056 45.7593C8.42018 45.2944 8.61036 44.8981 8.75828 44.4913C9.6775 41.9396 10.5967 39.3932 11.5371 36.8468C11.648 36.5404 11.574 36.5087 11.2993 36.5087C10.0684 36.5193 8.83753 36.5193 7.60663 36.5087C5.56217 36.4876 3.91921 35.3306 3.23773 33.4498C3.14264 33.191 3.1532 32.9057 3 32.6679L3.00528 32.6732ZM14.0675 20.0151C13.0585 20.0151 12.1657 20.0151 11.2729 20.0151C9.80957 20.0098 8.50471 18.9215 8.28283 17.5427C8.0451 16.037 8.87979 14.6264 10.3062 14.1562C10.565 14.0717 10.6654 13.9396 10.7605 13.7019C11.4103 12.0694 12.6359 11.1238 14.3739 11.0076C16.001 10.9019 17.2953 11.6045 18.1564 13.0204C18.2991 13.2528 18.4681 13.3638 18.7111 13.443C20.0266 13.8762 20.9933 15.1653 20.9986 16.5125C20.9986 16.803 21.0937 17.0038 21.2733 17.2151C23.1329 19.3653 24.9871 21.5155 26.8256 23.6762C27.0844 23.9827 27.2059 23.9298 27.4384 23.6657C28.9176 21.9857 30.4126 20.3162 31.9024 18.6415C33.0012 17.4053 34.5068 17.4159 35.5528 18.7049C38.2682 22.0438 40.973 25.3932 43.6831 28.7374C43.831 28.9223 43.9842 29.1019 44.2113 29.3819C44.2113 29.1811 44.2113 29.1125 44.2113 29.0438C44.2113 22.3502 44.2113 15.6566 44.2113 8.96302C44.2113 8.2551 43.9842 8.01736 43.2657 8.01208C39.9851 8.01208 36.7044 8.01208 33.4238 8.01208C33.1227 8.01208 32.9853 8.08076 32.9484 8.41359C32.8374 9.38038 31.8812 10.2574 30.9039 10.2574C27.301 10.2732 23.6981 10.2732 20.0952 10.2574C19.1073 10.2574 18.1564 9.40151 18.0349 8.42415C17.9927 8.05963 17.8342 8.0068 17.5278 8.0068C14.2788 8.01736 11.0246 8.01208 7.77568 8.01736C6.97797 8.01736 6.76666 8.23397 6.76666 9.03699C6.76666 15.5404 6.76666 22.0438 6.76666 28.5419C6.76666 28.6687 6.69798 28.8272 6.86175 28.9593C9.2443 26.0008 11.6163 23.0528 14.057 20.0204L14.0675 20.0151ZM38.5587 24.791C37.6659 25.8053 37.0742 25.874 35.9596 25.1344C35.8962 25.0921 35.8328 25.0604 35.7799 25.0076C35.5475 24.791 35.3785 24.8438 35.2464 25.1185C35.2041 25.2083 35.1354 25.2928 35.0773 25.3721C34.3906 26.2913 33.0804 26.2068 32.5204 25.2083C32.4148 25.0181 32.3197 24.8174 32.2193 24.6219C32.0467 24.2803 31.8002 24.2133 31.4797 24.4211C30.8194 24.8438 30.2066 24.8596 29.6783 24.5057C29.4775 24.3736 29.3772 24.0144 29.1289 24.0989C28.9228 24.1676 28.7855 24.4423 28.6164 24.6219C28.5161 24.7276 28.4315 24.8491 28.3206 24.9494C28.1463 25.1027 28.178 25.2189 28.3206 25.3827C28.6006 25.6838 28.87 25.9955 29.113 26.323C29.467 26.7932 29.2081 27.4325 28.627 27.5328C28.2836 27.5962 28.0512 27.4061 27.8399 27.1577C26.6407 25.7577 25.4362 24.363 24.237 22.9577C23.8355 22.4876 23.8355 22.4823 23.5977 23.0423C23.154 24.083 22.2136 24.4159 21.2786 23.8611C21.0303 23.7132 20.7873 23.3645 20.5443 23.4702C20.333 23.56 20.2432 23.9457 20.1111 24.2045C19.8258 24.7593 19.3662 25.0868 18.7481 25.0868C18.1512 25.0868 17.6915 24.791 17.401 24.2574C17.2478 23.9774 17.1421 23.5283 16.9255 23.4596C16.6561 23.3751 16.3708 23.7555 16.0908 23.9245C15.3196 24.3789 14.4268 24.1623 13.9619 23.3962C13.8721 23.2483 13.8456 23.0634 13.6555 22.9419C11.6533 25.4302 9.65636 27.9185 7.62776 30.4438H43.1178C41.5646 28.5208 40.059 26.6611 38.5482 24.7962L38.5587 24.791ZM25.4837 32.0076C19.1866 32.0128 12.8895 32.0128 6.59232 32.0128C5.99008 32.0128 5.39312 32.0287 4.79088 32.0234C4.54787 32.0234 4.51617 32.0974 4.54259 32.3351C4.70635 33.9253 6.15385 35.0136 7.58021 34.9819C9.83598 34.9344 12.0917 34.9713 14.3475 34.9713C24.0838 34.9713 33.8253 34.9713 43.5616 34.9661C44.9087 34.9661 46.0181 34.0944 46.372 32.8106C46.5199 32.2788 46.3245 32.0111 45.7856 32.0076C39.0183 32.0076 32.2563 32.0076 25.489 32.0076H25.4837ZM14.7015 18.4936C15.6207 18.4513 16.7935 18.5781 17.961 18.4355C18.8009 18.3351 19.4349 17.5849 19.4666 16.7079C19.4983 15.7993 18.9224 14.9698 18.0825 14.8377C17.5119 14.7479 17.2002 14.4785 16.9572 13.9608C16.5135 13.0309 15.7263 12.5502 14.6751 12.5343C13.6449 12.5185 12.8947 12.9781 12.3612 13.8498C12.2185 14.0876 12.2502 14.1826 12.5038 14.2883C13.1219 14.5419 13.5762 14.9857 13.8879 15.5774C14.0887 15.9525 13.9724 16.3593 13.6291 16.5759C13.3121 16.7713 12.8895 16.7027 12.6412 16.4068C12.5566 16.3064 12.4932 16.1902 12.414 16.0845C11.9755 15.5245 11.1937 15.3608 10.5597 15.6936C9.94164 16.0211 9.6458 16.7185 9.83598 17.3947C10.042 18.1185 10.5597 18.4883 11.4208 18.4989C12.4298 18.5094 13.4389 18.4989 14.6962 18.4989L14.7015 18.4936ZM25.4731 8.7517C27.1531 8.7517 28.8383 8.7517 30.5183 8.7517C31.2473 8.7517 31.5695 8.39246 31.4744 7.72151C31.3212 6.59623 30.3862 5.78264 29.2398 5.77736C28.7696 5.77736 28.3047 5.78264 27.8346 5.77208C27.3116 5.76151 27.0369 5.48679 26.9893 4.96906C26.9101 4.03925 26.2867 3.54264 25.4731 3.51623C24.686 3.48981 24.0785 4.12377 23.9992 4.96378C23.9464 5.51321 23.677 5.76679 23.1223 5.77736C22.668 5.78264 22.2136 5.77736 21.7646 5.77736C20.6763 5.77736 19.8522 6.43246 19.5828 7.50491C19.3662 8.36604 19.6673 8.75699 20.5496 8.75699C22.1872 8.75699 23.8249 8.75699 25.4626 8.75699L25.4731 8.7517ZM16.915 36.5193C15.8161 36.5193 14.7649 36.5298 13.7136 36.514C13.386 36.5087 13.2328 36.6091 13.1166 36.9261C12.5514 38.5374 11.9597 40.1329 11.3786 41.7389C10.9295 42.9804 10.4805 44.2272 10.0209 45.5057C11.1356 45.5057 12.2027 45.4898 13.2698 45.5163C13.5868 45.5215 13.7241 45.4212 13.8298 45.1253C14.5166 43.1864 15.2192 41.2581 15.9165 39.3246C16.2441 38.4106 16.5716 37.4913 16.915 36.5245V36.5193ZM40.9624 45.4317C40.7669 44.8876 40.5609 44.3276 40.3602 43.7729C39.5255 41.4695 38.6908 39.1661 37.8561 36.8627C37.798 36.7042 37.7716 36.5193 37.5286 36.5193C36.4033 36.5246 35.2781 36.5193 34.0947 36.5193C34.4328 37.4702 34.7551 38.3683 35.0826 39.2717C35.7799 41.2053 36.4773 43.1336 37.1746 45.0672C37.2327 45.2204 37.2274 45.4317 37.481 45.4317C38.6327 45.4317 39.7843 45.4317 40.9677 45.4317H40.9624ZM24.0045 40.9834C24.0045 42.3729 24.0098 43.7676 23.9992 45.157C23.9992 45.4159 24.0521 45.5163 24.3321 45.511C25.1086 45.4951 25.8852 45.4951 26.6618 45.511C26.9418 45.5163 26.9999 45.4212 26.9999 45.157C26.9893 42.4046 26.9893 39.6521 26.9999 36.8996C26.9999 36.6196 26.9365 36.5087 26.6407 36.5193C25.8799 36.5351 25.1192 36.5404 24.3585 36.5193C24.0574 36.5087 23.9992 36.6302 23.9992 36.8996C24.0098 38.2627 23.9992 39.6257 23.9992 40.9834H24.0045ZM18.7534 23.5177C18.933 23.1744 19.0651 22.8891 19.2236 22.6196C19.5986 21.9857 20.2748 21.7004 20.9458 21.8959C21.2997 21.9962 21.5956 22.2234 21.8914 22.44C22.071 22.5721 22.1767 22.6249 22.2559 22.3449C22.3404 22.0544 22.4672 21.7691 22.594 21.4943C22.6891 21.2883 22.6838 21.1351 22.5148 20.9502C21.8808 20.2423 21.2522 19.5291 20.6499 18.7947C20.4386 18.5411 20.3594 18.6045 20.1745 18.8211C19.5036 19.603 18.6372 19.994 17.6017 20.031C17.0523 20.0521 16.4289 19.8355 15.9746 20.1366C15.5362 20.4325 15.2614 20.9766 14.9075 21.4045C14.8018 21.5313 14.7754 21.6211 14.8494 21.7902C15.2456 22.6672 15.2403 22.6725 16.0433 22.1547C16.0803 22.1336 16.1173 22.1019 16.1542 22.0808C16.9572 21.6159 17.8764 21.8853 18.3149 22.7094C18.447 22.963 18.5791 23.2166 18.7428 23.5283L18.7534 23.5177ZM33.857 24.4581C34.0049 24.2468 34.1159 24.0725 34.2374 23.914C34.7551 23.2483 35.5369 23.1004 36.2607 23.5283C36.4984 23.671 36.7256 23.8294 36.958 23.9827C37.032 24.0302 37.1324 24.1147 37.1693 23.9985C37.2486 23.7502 37.5127 23.5177 37.2803 23.2325C36.2765 21.991 35.2834 20.7442 34.2638 19.5185C33.9521 19.1434 33.4449 19.1857 33.1121 19.5555C32.3038 20.4642 31.5114 21.3834 30.6873 22.2762C30.4232 22.5615 30.3334 22.8257 30.5658 23.206C31.1469 22.794 31.7386 22.366 32.5204 22.6936C33.2865 23.0106 33.4185 23.7977 33.8517 24.4528L33.857 24.4581Z" fill="black"/>
<path d="M38.6274 10.2574C40.5081 10.2574 42.019 11.7683 42.019 13.6491C42.019 15.4717 40.4605 17.0355 38.6221 17.0143C36.4773 16.9879 35.2041 15.1653 35.2464 13.6015C35.2939 11.726 36.7467 10.2574 38.6274 10.2574ZM38.6274 15.4823C39.6681 15.4823 40.4922 14.6528 40.4869 13.6226C40.4817 12.5977 39.6417 11.7577 38.6221 11.7577C37.6184 11.7577 36.7573 12.6242 36.752 13.6332C36.752 14.6476 37.6025 15.4876 38.6327 15.4823H38.6274Z" fill="black"/>
<path d="M26.1758 14.7426C26.7199 14.7849 27.1742 15.0068 27.5387 15.3819C27.7025 15.551 27.7765 15.5562 27.9455 15.3819C29.2028 14.1193 30.8194 14.9751 31.3899 16.0476C31.5801 16.4015 31.4956 16.8136 31.1945 17.0249C30.8564 17.2679 30.5288 17.2468 30.2066 16.9404C30.0481 16.7925 29.9107 16.6181 29.747 16.4702C29.4247 16.1796 29.2187 16.1849 28.9387 16.523C28.7749 16.7238 28.6376 16.951 28.5213 17.1834C28.3523 17.5215 28.1146 17.791 27.7289 17.7857C27.3644 17.7857 27.132 17.5215 26.984 17.1887C26.8625 16.9193 26.704 16.6762 26.4927 16.4649C26.2444 16.2166 25.9909 16.1902 25.7373 16.4491C25.6052 16.5864 25.4784 16.7291 25.3516 16.8664C25.0241 17.2204 24.649 17.2732 24.3004 17.0143C23.9623 16.7608 23.8989 16.3593 24.1313 15.963C24.5962 15.1864 25.2883 14.8008 26.1652 14.7215L26.1758 14.7426Z" fill="black"/>
<path d="M25.526 7.26189C25.1192 7.27246 24.7917 6.93434 24.7864 6.50113C24.7811 6.06264 25.0558 5.77208 25.4784 5.76679C25.8958 5.76151 26.2497 6.08378 26.2656 6.48529C26.2814 6.87623 25.9222 7.25132 25.5207 7.26189H25.526Z" fill="black"/>
</svg>
