<svg width="297" height="83" viewBox="0 0 297 83" fill="none" xmlns="http://www.w3.org/2000/svg">
<path d="M40 63L20 83V23L40 3V63Z" fill="white"/>
<path d="M40 3L60 0V23L40 26V3Z" fill="white"/>
<path d="M20 3H0V23H20V3Z" fill="white"/>
<path d="M72 16.39V11.38H88.29V16.39H82.93V33.31H77.39V16.39H72Z" fill="white"/>
<path d="M110.28 32.49V33.3H104.01L100.25 26.85H97.34V33.3H91.73V11.38H101.35C109.96 11.41 111.53 21.78 105.99 25.54L110.28 32.49ZM101.36 16.39C100.04 16.36 98.67 16.39 97.35 16.39V21.81H101.36C104.4 21.81 104.56 16.42 101.36 16.39Z" fill="white"/>
<path d="M127.3 30.55H118.65L117.37 33.31H111.89V32.5L121.75 11.09H124.16L134.06 32.49V33.3H128.58L127.3 30.54V30.55ZM122.95 19.96L120.51 25.72H125.46L122.95 19.96Z" fill="white"/>
<path d="M142.74 22.53V33.31H136.95V11.28H138.99L150.08 22.12V11.38H155.81V33.34H153.81L142.75 22.53H142.74Z" fill="white"/>
<path d="M172.13 26.76C172.13 25.23 170.31 24.97 168.12 24.85C163.36 24.51 160.23 22.88 160.16 18.11C159.97 8.65 177.01 8.65 176.89 18.11H171.56C171.56 15.2 165.67 15.45 165.48 18.05C165.36 19.71 166.98 20.05 168.96 20.27C173.31 20.74 177.57 21.3 177.57 26.79C177.57 36 159.71 36.25 159.84 26.6H165.26C165.26 29.39 172.12 29.33 172.12 26.76H172.13Z" fill="white"/>
<path d="M187.3 28.26H195.26V33.3H181.66V11.38H187.3V28.26Z" fill="white"/>
<path d="M212.74 30.55H204.09L202.81 33.31H197.33V32.5L207.2 11.09H209.61L219.51 32.49V33.3H214.03L212.75 30.54L212.74 30.55ZM208.39 19.96L205.95 25.72H210.9L208.39 19.96Z" fill="white"/>
<path d="M219.01 16.39V11.38H235.3V16.39H229.94V33.31H224.4V16.39H219.01Z" fill="white"/>
<path d="M248.55 28.39V33.31H237.43V28.39H240.22V16.26H237.65V11.38H248.33V16.27H245.76V28.39H248.55Z" fill="white"/>
<path d="M250.87 22.37C250.87 7.21 273.36 7.21 273.36 22.37C273.36 37.53 250.87 37.56 250.87 22.37ZM267.63 22.37C267.63 14.48 256.63 14.48 256.63 22.37C256.63 30.26 267.63 30.33 267.63 22.37Z" fill="white"/>
<path d="M283.39 22.53V33.31H277.6V11.28H279.64L290.73 22.12V11.38H296.46V33.34H294.46L283.4 22.53H283.39Z" fill="white"/>
<path d="M88.63 59.5C90.42 60.41 91.26 62.04 91.26 63.98C91.23 67.8 88.91 70.9 84.43 70.9H74.16V48.97H83.53C87.32 48.97 90.36 51.92 90.36 55.71C90.36 57.03 89.7 58.62 88.64 59.5H88.63ZM79.58 53.99V57.53H83.12C85.34 57.53 85.34 53.99 83.09 53.99H79.58ZM79.58 62.2V65.93H84.06C86.31 65.93 86.28 62.2 84.03 62.2H79.58Z" fill="white"/>
<path d="M107.46 63.51V48.97H112.88V63.6C112.88 68.42 108.65 71.21 104.14 71.21C99.63 71.21 95.43 68.42 95.43 63.6V48.97H100.79V63.51C100.79 65.3 102.51 66.17 104.14 66.17C105.77 66.17 107.46 65.29 107.46 63.51Z" fill="white"/>
<path d="M136.79 70.9H130.52L126.76 64.45H123.85V70.9H118.24V48.97H127.86C136.47 49 138.04 59.37 132.5 63.13L136.79 70.08V70.9ZM127.86 53.99C126.54 53.96 125.17 53.99 123.85 53.99V59.41H127.86C130.9 59.41 131.06 54.02 127.86 53.99Z" fill="white"/>
<path d="M153.87 53.99H145.76V57.09H153.22V62.07H145.76V65.92H154.16V70.9H140.19V48.97H153.88V53.98L153.87 53.99Z" fill="white"/>
<path d="M162.98 68.15L161.7 70.91H156.22V70.1L166.09 48.7H168.5L178.4 70.1V70.91H172.92L171.64 68.15H162.98ZM167.28 57.56L164.84 63.32H169.79L167.28 57.56Z" fill="white"/>
<path d="M192.59 63.51V48.97H198.01V63.6C198.01 68.42 193.78 71.21 189.27 71.21C184.76 71.21 180.56 68.42 180.56 63.6V48.97H185.92V63.51C185.92 65.3 187.64 66.17 189.27 66.17C190.9 66.17 192.59 65.29 192.59 63.51Z" fill="white"/>
</svg>
